# Blender v2.79 (sub 0) OBJ File: ''
# www.blender.org
mtllib CampFire.mtl
o Grid.001
v -0.702009 -0.057241 0.695288
v -0.479787 -0.049417 0.695288
v -0.257565 -0.021575 0.695288
v -0.035343 -0.053067 0.695288
v 0.186880 -0.039848 0.695288
v 0.409102 -0.057241 0.695288
v -0.702009 -0.057241 0.473066
v -0.479787 -0.030745 0.473066
v -0.257565 -0.017784 0.473066
v -0.035343 -0.049709 0.473066
v 0.186880 -0.012567 0.473066
v 0.409102 -0.057241 0.473066
v 0.631324 -0.016459 0.473066
v -0.702009 -0.057241 0.250844
v -0.479787 -0.046063 0.250844
v -0.257565 -0.024667 0.250844
v -0.035343 0.578841 0.250844
v 0.186880 0.123322 0.250844
v 0.409102 -0.029429 0.250844
v 0.631324 0.001095 0.250844
v -0.702009 -0.057241 0.028622
v -0.479787 -0.019198 0.028622
v -0.257565 -0.012161 0.028622
v -0.035343 0.360113 0.028622
v 0.186880 0.637208 0.028622
v 0.409102 0.187533 0.028622
v 0.631324 -0.057241 0.028622
v -0.702009 -0.057241 -0.193601
v -0.479787 -0.035721 -0.193601
v -0.257565 -0.057241 -0.193601
v -0.035343 0.077769 -0.193601
v 0.186880 0.192236 -0.193601
v 0.409102 0.015185 -0.193601
v 0.631324 -0.057241 -0.193601
v -0.702009 -0.057241 -0.415823
v -0.479787 -0.041063 -0.415823
v -0.257565 -0.021355 -0.415823
v -0.035343 0.086653 -0.415823
v 0.186880 0.076824 -0.415823
v 0.409102 0.034198 -0.415823
v 0.631324 -0.057241 -0.415823
v -0.479787 -0.057241 -0.638045
v -0.257565 -0.057241 -0.638045
v -0.035343 -0.057241 -0.638045
v 0.186880 -0.057241 -0.638045
v 0.409102 -0.057241 -0.638045
v 0.631324 -0.057241 -0.638045
v -0.813121 -0.057241 0.695288
v -0.479787 -0.057241 0.806400
v -0.590898 -0.057241 0.695288
v -0.257565 -0.057241 0.806400
v -0.368676 -0.022548 0.695288
v -0.035343 -0.057241 0.806400
v -0.146454 -0.018674 0.695288
v 0.186880 -0.057241 0.806400
v 0.063067 -0.013013 0.687177
v 0.409102 -0.057241 0.806400
v 0.297991 -0.032048 0.695288
v -0.702009 -0.023672 0.584177
v -0.813121 -0.057241 0.473066
v -0.479787 0.053441 0.584177
v -0.590898 -0.046725 0.473066
v -0.257565 -0.039391 0.584177
v -0.368676 0.019832 0.473066
v -0.035343 0.069567 0.584177
v -0.146454 0.111556 0.473066
v 0.186880 -0.057241 0.584177
v 0.075768 0.169928 0.473066
v 0.409102 -0.057241 0.584177
v 0.297991 -0.018421 0.473066
v 0.631324 -0.057241 0.584177
v 0.520213 -0.057241 0.473066
v 0.742435 -0.057241 0.473066
v -0.702009 -0.057241 0.361955
v -0.479787 -0.057241 0.361955
v -0.590898 -0.057241 0.250844
v -0.257565 0.136601 0.361955
v -0.368676 0.002097 0.250844
v -0.035343 0.160721 0.361955
v -0.146454 -0.057241 0.250844
v 0.186880 0.001545 0.361955
v 0.075768 -0.057241 0.250844
v 0.409102 0.191272 0.361955
v 0.297991 -0.013973 0.250844
v 0.631324 -0.057241 0.361955
v 0.520213 -0.057241 0.250844
v 0.742435 -0.057241 0.250844
v -0.702009 -0.057241 0.139733
v -0.479787 0.119314 0.139733
v -0.590898 -0.057241 0.028622
v -0.257565 0.195476 0.139733
v -0.368676 -0.057241 0.028622
v -0.035343 0.033725 0.139733
v -0.146454 0.521559 0.028622
v 0.186880 -0.057241 0.139733
v 0.075768 0.463355 0.028622
v 0.409102 -0.057241 0.139733
v 0.297991 -0.057241 0.028622
v 0.631324 -0.045481 0.139733
v 0.520213 -0.057241 0.028622
v 0.742435 -0.057241 0.028622
v -0.702009 -0.057241 -0.082489
v -0.479787 -0.017898 -0.082489
v -0.590898 -0.057241 -0.193601
v -0.257565 0.075665 -0.082489
v -0.368676 0.021076 -0.193601
v -0.035343 0.211103 -0.082489
v -0.050102 0.623113 -0.193601
v 0.186880 0.285099 -0.082489
v 0.075768 0.415349 -0.193601
v 0.409102 -0.029481 -0.082489
v 0.297991 0.086714 -0.193601
v 0.631324 0.029765 -0.082489
v 0.520213 -0.037998 -0.193601
v 0.742435 -0.057241 -0.193601
v -0.702009 -0.057241 -0.304712
v -0.479787 -0.057241 -0.304712
v -0.590898 -0.057241 -0.415823
v -0.257565 0.085012 -0.304712
v -0.368676 -0.057241 -0.415823
v -0.035343 0.117458 -0.304712
v -0.146454 0.001563 -0.415823
v 0.186880 0.048304 -0.304712
v 0.074622 0.143671 -0.382983
v 0.409102 -0.037236 -0.304712
v 0.297991 0.153701 -0.415823
v 0.631324 -0.057241 -0.304712
v 0.520213 -0.054731 -0.415823
v 0.742435 -0.057241 -0.415823
v -0.702009 -0.057241 -0.526934
v -0.479787 -0.014797 -0.526934
v -0.590898 -0.057241 -0.638045
v -0.257565 -0.057241 -0.526934
v -0.368676 -0.057241 -0.638045
v -0.035343 -0.026139 -0.526934
v -0.146454 -0.057241 -0.638045
v 0.186880 -0.028713 -0.526934
v 0.409102 -0.026651 -0.526934
v 0.297991 -0.057241 -0.638045
v 0.631324 -0.026637 -0.526934
v 0.520213 -0.057241 -0.638045
v 0.742435 -0.057241 -0.638045
v 0.742435 -0.057241 -0.526934
v 0.520213 -0.057241 -0.526934
v 0.274673 -0.000690 -0.521662
v 0.075768 -0.036286 -0.526934
v -0.146454 0.038787 -0.526934
v -0.368676 0.084660 -0.526934
v -0.590898 -0.057241 -0.526934
v 0.520213 -0.023036 -0.304712
v 0.297991 -0.003499 -0.304712
v 0.075768 0.037195 -0.304712
v -0.146454 0.190105 -0.304712
v -0.371309 0.052963 -0.304712
v -0.590898 -0.034790 -0.304712
v 0.742435 -0.057241 -0.082489
v 0.520213 -0.057241 -0.082489
v 0.297991 -0.007024 -0.082489
v 0.075768 0.121689 0.010002
v -0.146454 0.174245 -0.082489
v -0.381809 0.164799 -0.072358
v -0.590898 -0.031129 -0.082489
v 0.742435 -0.057241 0.139733
v 0.520213 -0.057241 0.139733
v 0.297991 -0.015814 0.139733
v 0.075768 0.257178 0.139733
v -0.146454 0.630540 0.139733
v -0.368676 -0.022610 0.139733
v -0.590898 -0.039873 0.139733
v 0.742435 -0.057241 0.361955
v 0.520213 -0.057241 0.361955
v 0.297991 -0.026031 0.361955
v 0.075768 0.344170 0.361955
v -0.146454 -0.057241 0.361955
v -0.368676 -0.057241 0.361955
v -0.581579 -0.015743 0.367232
v 0.742435 -0.057241 0.584177
v 0.520213 -0.038430 0.584177
v 0.297991 0.096984 0.584177
v 0.075768 -0.057241 0.584177
v -0.146454 -0.031524 0.584177
v -0.356472 -0.023315 0.588122
v -0.590898 -0.057241 0.584177
v -0.813121 -0.057241 0.584177
v 0.297991 -0.057241 0.806400
v 0.075768 -0.057241 0.806400
v -0.146454 -0.057241 0.806400
v -0.368676 -0.057241 0.806400
vn -0.0042 0.9533 0.3018
vn 0.1503 0.9709 0.1867
vn 0.1012 0.9624 0.2519
vn 0.1119 0.9874 0.1119
vn -0.1477 0.9779 -0.1477
vn -0.4758 0.8348 -0.2768
vn 0.2440 0.9357 0.2547
vn 0.2600 0.9601 0.1028
vn 0.4612 0.5616 0.6870
vn 0.6106 0.7028 -0.3650
vn -0.0979 0.9904 0.0979
vn 0.1364 0.9812 -0.1364
vn -0.5642 0.7504 -0.3442
vn -0.8746 0.2276 0.4282
vn 0.4132 0.5666 -0.7129
vn -0.5521 0.6078 -0.5707
vn -0.2461 0.9375 0.2461
vn -0.5878 0.6623 -0.4646
vn -0.6249 0.5277 -0.5753
vn 0.9253 0.2712 0.2653
vn 0.1498 0.2369 0.9599
vn -0.5595 0.6115 0.5595
vn -0.0528 0.9972 -0.0528
vn -0.1516 0.9697 -0.1917
vn 0.3978 0.6011 -0.6931
vn 0.7721 0.1911 0.6061
vn 0.4106 0.7687 0.4904
vn 0.3379 0.7989 0.4976
vn -0.2800 0.9183 -0.2800
vn 0.0282 0.9992 -0.0282
vn -0.2111 0.6988 -0.6835
vn -0.0398 0.7111 -0.7019
vn 0.2773 0.7832 0.5566
vn 0.4332 0.6282 0.6463
vn 0.1614 0.9770 -0.1393
vn -0.1844 0.9654 -0.1844
vn 0.4739 0.7422 -0.4739
vn 0.2458 0.8414 -0.4813
vn 0.0912 0.9330 -0.3481
vn -0.1352 0.9816 -0.1352
vn 0.1352 0.9816 -0.1352
vn 0.1352 0.9816 0.1352
vn 0.1351 0.9816 -0.1351
vn 0.4594 0.8542 -0.2435
vn -0.1244 0.9844 0.1244
vn -0.1209 0.9256 -0.3586
vn -0.3108 0.6253 -0.7158
vn 0.3652 0.6409 -0.6751
vn -0.0272 0.6566 -0.7537
vn 0.0671 0.6649 -0.7439
vn -0.3687 0.8533 -0.3687
vn -0.4719 0.8816 0.0053
vn -0.0856 0.9433 -0.3208
vn -0.3257 0.7277 -0.6037
vn -0.2863 0.7640 0.5782
vn 0.3955 0.8290 0.3955
vn 0.0000 1.0000 0.0000
vn -0.2534 0.9607 0.1135
vn 0.3143 0.9345 0.1671
vn 0.1705 0.9717 -0.1638
vn 0.2333 0.9702 0.0653
vn -0.0863 0.7645 0.6389
vn 0.4381 0.6188 -0.6520
vn 0.3703 0.7817 -0.5018
vn 0.0425 0.9279 0.3705
vn -0.5364 0.4632 -0.7055
vn 0.3500 0.3669 -0.8619
vn -0.3275 0.5686 -0.7546
vn -0.9229 0.3743 -0.0896
vn 0.7733 0.1575 -0.6141
vn -0.3663 0.8554 -0.3663
vn -0.6047 0.7952 0.0443
vn 0.1601 0.7779 0.6077
vn -0.1000 0.9899 -0.1000
vn -0.1000 0.9899 0.1000
vn 0.0042 1.0000 0.0042
vn 0.3425 0.8748 -0.3425
vn 0.3425 0.8748 0.3425
vn 0.3304 0.9071 0.2609
vn 0.6595 0.5378 -0.5252
vn -0.3425 0.8748 0.3425
vn 0.8729 0.4878 0.0019
vn 0.9348 0.2106 -0.2860
vn -0.6247 0.6245 -0.4687
vn -0.7640 0.5749 0.2929
vn 0.3605 0.2384 -0.9018
vn -0.5669 0.1514 -0.8098
vn -0.9170 0.3751 0.1357
vn -0.8798 0.3092 -0.3611
vn 0.2233 0.3983 -0.8896
vn -0.6621 0.5972 -0.4527
vn -0.4482 0.6016 0.6612
vn 0.1405 0.5633 0.8142
vn -0.1159 0.9865 -0.1159
vn -0.1159 0.9865 0.1159
vn -0.2232 0.9674 0.1193
vn 0.2950 0.9352 -0.1960
vn 0.5950 0.5402 0.5950
vn 0.1232 0.9847 -0.1232
vn -0.2950 0.9352 -0.1960
vn 0.6875 0.2339 0.6875
vn 0.3163 0.7333 -0.6019
vn 0.2459 0.9608 -0.1282
vn -0.4927 0.3351 0.8031
vn 0.7899 0.4254 -0.4416
vn 0.4585 0.7612 0.4585
vn -0.9287 0.2130 -0.3035
vn -0.3955 0.2184 0.8921
vn -0.1471 0.8324 0.5344
vn 0.5384 0.6648 -0.5179
vn 0.3358 0.7959 0.5038
vn -0.5429 0.6306 0.5546
vn -0.0777 0.9939 -0.0777
vn -0.0777 0.9939 0.0777
vn -0.5095 0.6646 0.5465
vn 0.2461 0.9375 0.2461
vn 0.1776 0.9679 -0.1776
vn 0.6616 0.5321 -0.5284
vn 0.5977 0.5344 0.5977
vn -0.1776 0.9679 -0.1776
vn 0.5364 0.7230 0.4354
vn 0.1487 0.9885 0.0289
vn -0.4783 0.5955 0.6455
vn 0.8972 0.4405 0.0331
vn -0.6720 0.3705 0.6413
vn 0.8745 0.3701 0.3137
vn 0.6362 0.6244 -0.4531
vn 0.2782 0.9585 -0.0622
vn -0.2432 0.9534 0.1786
vn -0.2023 0.9335 0.2962
vn -0.2020 0.8877 -0.4137
vn -0.5531 0.7868 0.2737
vn -0.1701 0.9706 -0.1701
vn -0.2201 0.9669 0.1286
vn 0.1196 0.9925 0.0257
vn 0.1776 0.9679 0.1776
vn -0.0840 0.9929 -0.0840
vn -0.5368 0.8040 -0.2559
vn -0.5459 0.7487 0.3761
vn 0.5725 0.7091 0.4117
vn -0.3518 0.8421 0.4088
vn 0.3711 0.8646 0.3386
vn 0.1185 0.9561 -0.2681
vn -0.4444 0.7197 0.5334
vn -0.0479 0.9895 -0.1365
vn -0.2598 0.8658 0.4277
vn 0.1122 0.9766 -0.1833
vn 0.1816 0.8868 0.4249
vn 0.0700 0.9943 -0.0807
vn 0.1026 0.9894 -0.1026
vn 0.1477 0.9779 0.1477
vn -0.4356 0.8169 0.3781
vn -0.1477 0.9779 0.1477
vn -0.0345 0.9815 0.1881
vn -0.1756 0.9614 0.2117
vn -0.0124 0.9484 0.3168
vn -0.1179 0.9753 0.1866
usemtl None
s off
f 188//1 51//1 3//1 52//1
f 187//2 53//2 4//2 54//2
f 186//3 55//3 5//3 56//3
f 185//4 57//4 6//4 58//4
f 184//5 59//5 7//5 60//5
f 183//6 61//6 8//6 62//6
f 182//7 63//7 9//7 64//7
f 181//8 65//8 10//8 66//8
f 180//9 67//9 11//9 68//9
f 179//10 69//10 12//10 70//10
f 178//11 71//11 13//11 72//11
f 176//12 75//12 15//12 76//12
f 175//13 77//13 16//13 78//13
f 174//14 79//14 17//14 80//14
f 173//15 81//15 18//15 82//15
f 172//16 83//16 19//16 84//16
f 171//17 85//17 20//17 86//17
f 169//18 89//18 22//18 90//18
f 168//19 91//19 23//19 92//19
f 167//20 93//20 24//20 94//20
f 166//21 95//21 25//21 96//21
f 165//22 97//22 26//22 98//22
f 164//23 99//23 27//23 100//23
f 162//24 103//24 29//24 104//24
f 161//25 105//25 30//25 106//25
f 160//26 107//26 31//26 108//26
f 159//27 109//27 32//27 110//27
f 158//28 111//28 33//28 112//28
f 157//29 113//29 34//29 114//29
f 155//30 117//30 36//30 118//30
f 154//31 119//31 37//31 120//31
f 153//32 121//32 38//32 122//32
f 152//33 123//33 39//33 124//33
f 151//34 125//34 40//34 126//34
f 150//35 127//35 41//35 128//35
f 149//36 131//36 42//36 132//36
f 148//37 133//37 43//37 134//37
f 147//38 135//38 44//38 136//38
f 145//39 138//39 46//39 139//39
f 144//40 140//40 47//40 141//40
f 140//41 143//41 142//41 47//41
f 41//42 129//42 143//42 140//42
f 138//43 144//43 141//43 46//43
f 40//44 128//44 144//44 138//44
f 128//45 41//45 140//45 144//45
f 137//46 145//46 139//46 45//46
f 39//47 126//47 145//47 137//47
f 126//48 40//48 138//48 145//48
f 38//49 124//49 146//49 135//49
f 124//50 39//50 137//50 146//50
f 133//51 147//51 136//51 43//51
f 37//52 122//52 147//52 133//52
f 122//53 38//53 135//53 147//53
f 131//54 148//54 134//54 42//54
f 36//55 120//55 148//55 131//55
f 120//56 37//56 133//56 148//56
f 35//57 118//57 149//57 130//57
f 118//58 36//58 131//58 149//58
f 125//59 150//59 128//59 40//59
f 33//60 114//60 150//60 125//60
f 114//61 34//61 127//61 150//61
f 123//62 151//62 126//62 39//62
f 32//63 112//63 151//63 123//63
f 112//64 33//64 125//64 151//64
f 121//65 152//65 124//65 38//65
f 31//66 110//66 152//66 121//66
f 110//67 32//67 123//67 152//67
f 119//68 153//68 122//68 37//68
f 30//69 108//69 153//69 119//69
f 108//70 31//70 121//70 153//70
f 117//71 154//71 120//71 36//71
f 29//72 106//72 154//72 117//72
f 106//73 30//73 119//73 154//73
f 116//74 155//74 118//74 35//74
f 28//75 104//75 155//75 116//75
f 104//76 29//76 117//76 155//76
f 113//77 156//77 115//77 34//77
f 27//78 101//78 156//78 113//78
f 111//79 157//79 114//79 33//79
f 26//80 100//80 157//80 111//80
f 100//81 27//81 113//81 157//81
f 109//82 158//82 112//82 32//82
f 25//83 98//83 158//83 109//83
f 98//84 26//84 111//84 158//84
f 107//85 159//85 110//85 31//85
f 24//86 96//86 159//86 107//86
f 96//87 25//87 109//87 159//87
f 105//88 160//88 108//88 30//88
f 23//89 94//89 160//89 105//89
f 94//90 24//90 107//90 160//90
f 103//91 161//91 106//91 29//91
f 22//92 92//92 161//92 103//92
f 92//93 23//93 105//93 161//93
f 102//94 162//94 104//94 28//94
f 21//95 90//95 162//95 102//95
f 90//96 22//96 103//96 162//96
f 20//97 87//97 163//97 99//97
f 97//98 164//98 100//98 26//98
f 19//99 86//99 164//99 97//99
f 86//100 20//100 99//100 164//100
f 95//101 165//101 98//101 25//101
f 18//102 84//102 165//102 95//102
f 84//103 19//103 97//103 165//103
f 93//104 166//104 96//104 24//104
f 17//105 82//105 166//105 93//105
f 82//106 18//106 95//106 166//106
f 91//107 167//107 94//107 23//107
f 16//108 80//108 167//108 91//108
f 80//109 17//109 93//109 167//109
f 89//110 168//110 92//110 22//110
f 15//111 78//111 168//111 89//111
f 78//112 16//112 91//112 168//112
f 88//113 169//113 90//113 21//113
f 14//114 76//114 169//114 88//114
f 76//115 15//115 89//115 169//115
f 85//116 170//116 87//116 20//116
f 13//117 73//117 170//117 85//117
f 83//118 171//118 86//118 19//118
f 12//119 72//119 171//119 83//119
f 72//120 13//120 85//120 171//120
f 81//121 172//121 84//121 18//121
f 11//122 70//122 172//122 81//122
f 70//123 12//123 83//123 172//123
f 79//124 173//124 82//124 17//124
f 10//125 68//125 173//125 79//125
f 68//126 11//126 81//126 173//126
f 77//127 174//127 80//127 16//127
f 9//128 66//128 174//128 77//128
f 66//129 10//129 79//129 174//129
f 75//130 175//130 78//130 15//130
f 8//131 64//131 175//131 75//131
f 64//132 9//132 77//132 175//132
f 74//133 176//133 76//133 14//133
f 7//134 62//134 176//134 74//134
f 62//135 8//135 75//135 176//135
f 71//136 177//136 73//136 13//136
f 69//137 178//137 72//137 12//137
f 67//138 179//138 70//138 11//138
f 5//139 58//139 179//139 67//139
f 58//140 6//140 69//140 179//140
f 65//141 180//141 68//141 10//141
f 4//142 56//142 180//142 65//142
f 56//143 5//143 67//143 180//143
f 63//144 181//144 66//144 9//144
f 3//145 54//145 181//145 63//145
f 54//146 4//146 65//146 181//146
f 61//147 182//147 64//147 8//147
f 2//148 52//148 182//148 61//148
f 52//149 3//149 63//149 182//149
f 59//150 183//150 62//150 7//150
f 1//151 50//151 183//151 59//151
f 50//152 2//152 61//152 183//152
f 48//153 1//153 59//153 184//153
f 55//154 185//154 58//154 5//154
f 53//155 186//155 56//155 4//155
f 51//156 187//156 54//156 3//156
f 49//157 188//157 52//157 2//157
