# Blender v2.79 (sub 0) OBJ File: ''
# www.blender.org
mtllib CampFireBase.mtl
o Grid
v -1.058003 0.035030 1.010715
v -0.821748 0.044870 1.195225
v -0.544083 -0.018382 1.122666
v -0.505530 0.001874 0.909776
v -0.294676 -0.052303 0.948314
v -0.071153 0.125162 1.079100
v 0.175058 -0.101396 1.005922
v 0.456288 0.019943 1.013672
v 0.725818 0.122362 1.060847
v 0.915769 0.003300 0.998457
v -1.037352 -0.005731 0.983026
v -0.847054 -0.003373 0.810445
v -0.640617 0.014417 0.802844
v -0.393569 0.019770 0.826926
v -0.222979 -0.022712 0.735400
v 0.041350 -0.102984 0.899875
v 0.259631 -0.061411 0.921606
v 0.544341 0.042464 0.838826
v 0.609698 0.055624 0.768926
v 0.836821 0.036582 0.894321
v -1.024623 0.042468 0.514856
v -0.987674 -0.118714 0.538707
v -0.655234 0.076715 0.561654
v -0.369512 -0.045555 0.596496
v -0.063893 0.047875 0.728372
v 0.018760 0.042483 0.597132
v 0.256177 0.029577 0.584228
v 0.361034 0.113842 0.636989
v 0.676604 0.070238 0.593391
v 0.992672 -0.003813 0.622282
v -1.083148 0.021041 0.365662
v -0.933400 0.000435 0.451951
v -0.566378 -0.110782 0.336008
v -0.313324 0.080984 0.263241
v -0.205575 -0.033690 0.390365
v 0.050904 0.051449 0.299931
v 0.262249 -0.002960 0.380691
v 0.372221 -0.022343 0.378674
v 0.686366 -0.031662 0.431341
v 0.917399 0.018001 0.360853
v -0.971114 0.116511 0.023561
v -0.858454 0.017954 0.141116
v -0.576470 -0.121454 0.215084
v -0.289304 0.042719 0.047479
v -0.072678 0.099842 0.217055
v 0.092376 0.096735 0.154172
v 0.152696 0.012038 0.082645
v 0.400766 0.116859 0.182096
v 0.696673 0.062398 0.136755
v 1.044507 0.074027 0.149691
v -1.013518 0.058136 0.018804
v -0.882892 0.146167 -0.123986
v -0.561380 -0.091060 0.005145
v -0.297486 -0.001344 -0.069646
v -0.190008 0.005455 -0.256848
v 0.018376 0.133921 0.038841
v 0.256653 0.016728 -0.057755
v 0.380677 0.031652 -0.117490
v 0.689501 0.015585 -0.086504
v 0.887645 -0.078039 -0.024734
v -1.085688 -0.044148 -0.206099
v -0.742909 0.157588 -0.364965
v -0.532941 -0.007349 -0.306992
v -0.351638 -0.109988 -0.314291
v -0.060421 0.057084 -0.244211
v -0.055670 -0.000888 -0.373029
v 0.260240 0.002787 -0.341075
v 0.536117 -0.013348 -0.405783
v 0.725187 0.073730 -0.372683
v 1.007869 0.011259 -0.417292
v -1.005103 -0.047297 -0.604408
v -0.857173 -0.120294 -0.421894
v -0.571220 0.026591 -0.563694
v -0.397663 0.036851 -0.457179
v -0.254212 0.072603 -0.507440
v 0.017641 0.014696 -0.673175
v 0.151581 0.015876 -0.533311
v 0.413212 0.160308 -0.598745
v 0.613049 0.040775 -0.460131
v 0.934611 0.054405 -0.606465
v -1.050458 -0.041344 -0.612676
v -0.850200 0.032270 -0.745826
v -0.466301 0.063826 -0.826942
v -0.396176 0.023861 -0.760030
v -0.265453 -0.041309 -0.689138
v -0.136429 0.044758 -0.667010
v 0.256250 -0.052481 -0.810546
v 0.603287 0.040810 -0.600388
v 0.717519 0.044363 -0.704254
v 0.990828 0.036144 -0.812436
v -1.106373 0.030559 -0.956144
v -0.816695 -0.006380 -1.141882
v -0.631170 0.031616 -1.005543
v -0.459661 -0.011338 -0.974473
v -0.188850 0.012175 -1.025494
v 0.028694 0.035836 -0.915842
v 0.259217 -0.002854 -0.835742
v 0.424482 -0.002126 -0.912692
v 0.659439 0.103192 -0.919181
v 0.934860 -0.164521 -1.004890
vn -0.0221 0.9773 -0.2106
vn 0.0874 0.9955 -0.0369
vn -0.0066 0.9922 0.1247
vn 0.2741 0.9083 0.3160
vn 0.0754 0.9034 -0.4220
vn 0.3021 0.8681 -0.3939
vn -0.3724 0.9277 -0.0243
vn -0.3297 0.9415 -0.0694
vn 0.3378 0.9093 -0.2432
vn 0.4915 0.8555 -0.1626
vn -0.3683 0.9296 0.0153
vn 0.2146 0.9767 -0.0020
vn -0.1015 0.9932 -0.0563
vn 0.1354 0.7837 0.6062
vn -0.0656 0.9352 0.3481
vn -0.3773 0.8426 0.3844
vn 0.1319 0.9745 0.1814
vn 0.1623 0.9865 0.0239
vn 0.5647 0.7660 0.3071
vn -0.1511 0.9490 -0.2768
vn -0.1365 0.9804 -0.1423
vn 0.0102 0.9978 0.0656
vn -0.2677 0.9614 -0.0637
vn 0.1534 0.9876 -0.0348
vn -0.1964 0.9186 -0.3429
vn 0.0801 0.8690 -0.4882
vn 0.0293 0.9813 -0.1901
vn 0.2460 0.9408 0.2333
vn 0.3633 0.9291 0.0693
vn -0.5875 0.7970 -0.1401
vn -0.0331 0.9738 0.2251
vn 0.0100 0.8700 0.4930
vn 0.4538 0.8896 0.0512
vn -0.3029 0.8946 0.3285
vn 0.0886 0.8970 0.4330
vn -0.0755 0.9613 0.2648
vn 0.0663 0.9698 0.2346
vn 0.4401 0.8543 0.2766
vn -0.4349 0.8993 -0.0468
vn -0.1998 0.9626 -0.1831
vn -0.3261 0.9452 0.0141
vn 0.6228 0.7572 0.1969
vn -0.2768 0.9345 -0.2238
vn 0.1064 0.9627 -0.2486
vn 0.1952 0.8426 -0.5019
vn -0.6124 0.7545 -0.2363
vn 0.5087 0.8091 0.2941
vn 0.0206 0.9987 -0.0457
vn -0.4589 0.8167 -0.3499
vn -0.1458 0.9643 -0.2212
vn 0.1706 0.9598 -0.2227
vn -0.0316 0.9933 -0.1112
vn -0.1382 0.9901 -0.0233
vn 0.2890 0.9196 0.2662
vn -0.1963 0.8408 -0.5045
vn -0.0706 0.8037 -0.5908
vn 0.1299 0.9134 0.3858
vn -0.3788 0.7603 0.5277
vn 0.3625 0.9316 -0.0261
vn -0.0339 0.9976 0.0605
vn -0.0924 0.8730 0.4788
vn -0.1779 0.8116 0.5564
vn 0.0761 0.9970 -0.0143
vn -0.0634 0.8978 0.4357
vn -0.1607 0.9477 0.2757
vn 0.0802 0.9951 0.0577
vn 0.1220 0.9595 -0.2538
vn -0.1700 0.9419 -0.2898
vn 0.1757 0.9698 -0.1690
vn -0.1377 0.7479 -0.6493
vn 0.3487 0.9369 -0.0240
vn -0.0272 0.9987 -0.0423
vn -0.0446 0.9979 0.0462
vn -0.1115 0.9891 -0.0965
vn 0.4369 0.8093 -0.3926
vn 0.1014 0.9942 0.0354
vn -0.2859 0.9572 -0.0452
vn 0.2317 0.9315 0.2805
vn -0.2114 0.9688 0.1294
vn -0.2532 0.9568 0.1426
vn 0.3011 0.8712 -0.3876
usemtl None
s off
f 1//1 2//1 12//1 11//1
f 2//2 3//2 13//2 12//2
f 3//3 4//3 14//3 13//3
f 4//4 5//4 15//4 14//4
f 5//5 6//5 16//5 15//5
f 6//6 7//6 17//6 16//6
f 7//7 8//7 18//7 17//7
f 8//8 9//8 19//8 18//8
f 9//9 10//9 20//9 19//9
f 11//10 12//10 22//10 21//10
f 12//11 13//11 23//11 22//11
f 13//12 14//12 24//12 23//12
f 14//13 15//13 25//13 24//13
f 15//14 16//14 26//14 25//14
f 16//15 17//15 27//15 26//15
f 17//16 18//16 28//16 27//16
f 18//17 19//17 29//17 28//17
f 19//18 20//18 30//18 29//18
f 21//19 22//19 32//19 31//19
f 22//20 23//20 33//20 32//20
f 23//21 24//21 34//21 33//21
f 24//22 25//22 35//22 34//22
f 25//23 26//23 36//23 35//23
f 26//24 27//24 37//24 36//24
f 27//25 28//25 38//25 37//25
f 28//26 29//26 39//26 38//26
f 29//27 30//27 40//27 39//27
f 31//28 32//28 42//28 41//28
f 32//29 33//29 43//29 42//29
f 33//30 34//30 44//30 43//30
f 34//31 35//31 45//31 44//31
f 35//32 36//32 46//32 45//32
f 36//33 37//33 47//33 46//33
f 37//34 38//34 48//34 47//34
f 38//35 39//35 49//35 48//35
f 39//36 40//36 50//36 49//36
f 41//37 42//37 52//37 51//37
f 42//38 43//38 53//38 52//38
f 43//39 44//39 54//39 53//39
f 44//40 45//40 55//40 54//40
f 45//41 46//41 56//41 55//41
f 46//42 47//42 57//42 56//42
f 47//43 48//43 58//43 57//43
f 48//44 49//44 59//44 58//44
f 49//45 50//45 60//45 59//45
f 51//46 52//46 62//46 61//46
f 52//47 53//47 63//47 62//47
f 53//48 54//48 64//48 63//48
f 54//49 55//49 65//49 64//49
f 55//50 56//50 66//50 65//50
f 56//51 57//51 67//51 66//51
f 57//52 58//52 68//52 67//52
f 58//53 59//53 69//53 68//53
f 59//54 60//54 70//54 69//54
f 61//55 62//55 72//55 71//55
f 62//56 63//56 73//56 72//56
f 63//57 64//57 74//57 73//57
f 64//58 65//58 75//58 74//58
f 65//59 66//59 76//59 75//59
f 66//60 67//60 77//60 76//60
f 67//61 68//61 78//61 77//61
f 68//62 69//62 79//62 78//62
f 69//63 70//63 80//63 79//63
f 71//64 72//64 82//64 81//64
f 72//65 73//65 83//65 82//65
f 73//66 74//66 84//66 83//66
f 74//67 75//67 85//67 84//67
f 75//68 76//68 86//68 85//68
f 76//69 77//69 87//69 86//69
f 77//70 78//70 88//70 87//70
f 78//71 79//71 89//71 88//71
f 79//72 80//72 90//72 89//72
f 81//73 82//73 92//73 91//73
f 82//74 83//74 93//74 92//74
f 83//75 84//75 94//75 93//75
f 84//76 85//76 95//76 94//76
f 85//77 86//77 96//77 95//77
f 86//78 87//78 97//78 96//78
f 87//79 88//79 98//79 97//79
f 88//80 89//80 99//80 98//80
f 89//81 90//81 100//81 99//81
