# Blender v2.79 (sub 0) OBJ File: 'Low Poly Mill.blend'
# www.blender.org
mtllib DirtGround.mtl
o Island_Untitled.003
v 0.020141 0.171589 -0.037212
v -0.049904 0.168804 0.038550
v -0.119948 0.190240 0.114312
v -0.189552 0.174567 0.189598
v -0.309813 0.159898 0.319675
v -0.321324 0.036125 0.332126
v -0.295915 -0.109338 0.304643
v -0.207095 -0.317397 0.208572
v -0.069441 -0.466052 0.059682
v 0.016581 -0.574831 -0.033361
v -0.079744 0.136328 -0.011346
v -0.179630 0.125403 0.014521
v -0.274220 0.133524 0.039016
v -0.423707 0.118138 0.077726
v -0.454825 0.036284 0.085785
v -0.432872 -0.110866 0.080100
v -0.303110 -0.316723 0.046497
v -0.113694 -0.471227 -0.002554
v 0.015064 -0.574831 -0.035897
v -0.077872 0.173674 -0.069454
v -0.175885 0.186470 -0.101696
v -0.274017 0.181148 -0.133977
v -0.416609 0.120086 -0.180883
v -0.545547 0.034934 -0.223298
v -0.436090 -0.118760 -0.187292
v -0.290646 -0.311176 -0.139447
v -0.089667 -0.452590 -0.073334
v 0.015159 -0.574831 -0.038850
v -0.044882 0.202401 -0.117325
v -0.109904 0.135257 -0.197439
v -0.174418 0.173219 -0.276926
v -0.269014 0.118673 -0.393476
v -0.328807 0.035472 -0.467147
v -0.269939 -0.105968 -0.394616
v -0.172670 -0.293726 -0.274772
v -0.083687 -0.493034 -0.165137
v 0.016836 -0.574831 -0.041284
v 0.008753 0.182340 -0.139761
v -0.002635 0.188450 -0.242311
v -0.014088 0.185175 -0.345455
v -0.034487 0.173417 -0.529151
v -0.039623 0.035629 -0.575397
v -0.036026 -0.137093 -0.543006
v -0.013809 -0.295083 -0.342941
v -0.000700 -0.512835 -0.224884
v 0.019562 -0.574831 -0.042424
v 0.066003 0.171363 -0.129639
v 0.111866 0.171912 -0.222066
v 0.158290 0.190843 -0.315624
v 0.227928 0.131755 -0.455967
v 0.265642 0.035490 -0.531971
v 0.216318 -0.093826 -0.432568
v 0.152849 -0.287642 -0.304660
v 0.069748 -0.449306 -0.137185
v 0.022472 -0.574831 -0.041909
v 0.108692 0.161524 -0.090171
v 0.197244 0.160142 -0.143130
v 0.289418 0.188600 -0.198256
v 0.432355 0.151208 -0.283741
v 0.454721 0.036082 -0.297117
v 0.419218 -0.108974 -0.275884
v 0.281878 -0.292916 -0.193746
v 0.132869 -0.465550 -0.104630
v 0.024641 -0.574831 -0.039903
v 0.123267 0.127280 -0.033889
v 0.226394 0.153024 -0.030567
v 0.324711 0.139120 -0.027399
v 0.487038 0.131250 -0.022169
v 0.486336 0.036596 -0.022192
v 0.505703 -0.122304 -0.021568
v 0.317694 -0.286938 -0.027625
v 0.189750 -0.497098 -0.031747
v 0.025382 -0.574831 -0.037043
v 0.105100 0.157763 0.021338
v 0.190059 0.187681 0.079887
v 0.275280 0.182791 0.138617
v 0.414394 0.148931 0.234487
v 0.482803 0.035367 0.281631
v 0.373872 -0.086295 0.206562
v 0.302771 -0.324400 0.157562
v 0.186509 -0.523712 0.077440
v 0.024459 -0.574831 -0.034236
v 0.059959 0.177194 0.057976
v 0.099777 0.169986 0.153163
v 0.140329 0.196290 0.250106
v 0.208689 0.163748 0.413524
v 0.220785 0.035907 0.442440
v 0.202798 -0.114301 0.399443
v 0.136385 -0.289830 0.240678
v 0.084159 -0.493966 0.115828
v 0.022164 -0.574831 -0.032374
v 0.002176 0.202463 0.064392
v -0.015789 0.147999 0.165996
v -0.034030 0.193550 0.269157
v -0.064454 0.159614 0.441223
v -0.068733 0.036029 0.465425
v -0.064051 -0.120848 0.438943
v -0.034494 -0.300164 0.271780
v -0.005287 -0.477635 0.106597
v 0.019228 -0.574831 -0.032048
v 0.135629 -0.808002 0.022338
v 0.074814 -0.786981 0.006691
v 0.127109 -0.768724 -0.026584
v 0.109125 -0.819457 -0.025174
v -0.062303 -0.697582 -0.126769
v -0.089792 -0.699685 -0.119677
v -0.103886 -0.683156 -0.138109
v -0.076149 -0.680752 -0.145619
v -0.084578 -0.701936 -0.141661
v -0.080893 -0.673448 -0.118932
v 0.100875 -0.562696 0.111917
v 0.078452 -0.577477 0.172312
v 0.040136 -0.578565 0.119900
v 0.081219 -0.612423 0.127393
v 0.098688 -0.560139 0.147161
v 0.042995 -0.571044 0.156992
v 0.064977 -0.558536 0.103076
v 0.104361 -0.598898 0.109316
v 0.083843 -0.609459 0.156871
v 0.061025 -0.602139 0.120996
vt 0.090909 0.069348
vt 0.000000 0.069348
vt 0.045455 0.000000
vt 0.090909 0.138696
vt 0.000000 0.138696
vt 0.090909 0.208045
vt 0.000000 0.208045
vt 0.090909 0.321495
vt 0.000000 0.321495
vt 0.090909 0.402068
vt 0.000000 0.402068
vt 0.090909 0.508775
vt 0.000000 0.508775
vt 0.090909 0.672516
vt 0.000000 0.672516
vt 0.090909 0.836258
vt 0.000000 0.836258
vt 0.090909 1.000000
vt 0.000000 1.000000
vt 0.181818 0.069348
vt 0.136364 0.000000
vt 0.181818 0.138696
vt 0.181818 0.208045
vt 0.181818 0.321495
vt 0.181818 0.402068
vt 0.181818 0.508775
vt 0.181818 0.672516
vt 0.181818 0.836258
vt 0.181818 1.000000
vt 0.272727 0.069348
vt 0.227273 0.000000
vt 0.272727 0.138696
vt 0.272727 0.208045
vt 0.272727 0.321495
vt 0.272727 0.402068
vt 0.272727 0.508775
vt 0.272727 0.672516
vt 0.272727 0.836258
vt 0.272727 1.000000
vt 0.363636 0.069348
vt 0.318182 0.000000
vt 0.363636 0.138696
vt 0.363636 0.208045
vt 0.363636 0.321495
vt 0.363636 0.402068
vt 0.363636 0.508775
vt 0.363636 0.672516
vt 0.363636 0.836258
vt 0.363636 1.000000
vt 0.454545 0.069348
vt 0.409091 0.000000
vt 0.454545 0.138696
vt 0.454545 0.208045
vt 0.454545 0.321495
vt 0.454545 0.402068
vt 0.454545 0.508775
vt 0.454545 0.672516
vt 0.454545 0.836258
vt 0.454545 1.000000
vt 0.545455 0.069348
vt 0.500000 0.000000
vt 0.545455 0.138696
vt 0.545455 0.208045
vt 0.545455 0.321495
vt 0.545455 0.402068
vt 0.545455 0.508775
vt 0.545455 0.672516
vt 0.545455 0.836258
vt 0.545455 1.000000
vt 0.636364 0.069348
vt 0.590909 0.000000
vt 0.636364 0.138696
vt 0.636364 0.208045
vt 0.636364 0.321495
vt 0.636364 0.402068
vt 0.636364 0.508775
vt 0.636364 0.672516
vt 0.636364 0.836258
vt 0.636364 1.000000
vt 0.727273 0.069348
vt 0.681818 0.000000
vt 0.727273 0.138696
vt 0.727273 0.208045
vt 0.727273 0.321495
vt 0.727273 0.402068
vt 0.727273 0.508775
vt 0.727273 0.672516
vt 0.727273 0.836258
vt 0.727273 1.000000
vt 0.818182 0.069348
vt 0.772727 0.000000
vt 0.818182 0.138696
vt 0.818182 0.208045
vt 0.818182 0.321495
vt 0.818182 0.402068
vt 0.818182 0.508775
vt 0.818182 0.672516
vt 0.818182 0.836258
vt 0.818182 1.000000
vt 0.909091 0.069348
vt 0.863636 0.000000
vt 0.909091 0.138696
vt 0.909091 0.208045
vt 0.909091 0.321495
vt 0.909091 0.402068
vt 0.909091 0.508775
vt 0.909091 0.672516
vt 0.909091 0.836258
vt 0.909091 1.000000
vt 1.000000 0.069348
vt 0.954545 0.000000
vt 1.000000 0.138696
vt 1.000000 0.208045
vt 1.000000 0.321495
vt 1.000000 0.402068
vt 1.000000 0.508775
vt 1.000000 0.672516
vt 1.000000 0.836258
vt 1.000000 1.000000
vt 1.000000 0.000000
vt 0.500000 1.000000
vt 0.000000 0.000000
vt 1.000000 0.000000
vt 0.500000 1.000000
vt 0.000000 0.000000
vt 1.000000 0.000000
vt 0.000000 0.000000
vt 0.000000 0.000000
vt 1.000000 0.000000
vt 0.500000 1.000000
vt 0.000000 0.000000
vt 1.000000 0.000000
vt 0.000000 0.000000
vt 1.000000 0.000000
vt 0.000000 0.000000
vt 1.000000 0.000000
vt 1.000000 1.000000
vt 0.000000 1.000000
vt 0.500000 0.000000
vt 1.000000 1.000000
vt 0.000000 1.000000
vt 1.000000 1.000000
vt 0.000000 1.000000
vt 1.000000 1.000000
vt 0.000000 1.000000
vt 0.500000 0.000000
vt 0.250000 0.500000
vt 0.000000 0.000000
vt 0.750000 0.500000
vt 0.500000 1.000000
vt 1.000000 0.000000
vt 0.500000 0.000000
vt 0.250000 0.500000
vt 0.750000 0.500000
vt 0.500000 1.000000
vt 1.000000 0.000000
vt 0.500000 0.000000
vt 0.250000 0.500000
vt 0.000000 0.000000
vt 0.750000 0.500000
vt 0.250000 0.500000
vt 0.000000 0.000000
vt 0.750000 0.500000
vt 1.000000 0.000000
vn -0.3888 0.8610 -0.3279
vn -0.2101 0.8723 -0.4415
vn -0.2105 0.9380 -0.2753
vn -0.1806 0.9768 -0.1147
vn -0.8769 0.2242 0.4252
vn -0.8506 -0.1931 0.4891
vn -0.7294 -0.5232 0.4407
vn -0.5198 -0.7833 0.3408
vn -0.5036 -0.7570 0.4163
vn -0.1568 0.8331 0.5304
vn -0.0076 0.8709 0.4914
vn -0.0006 0.9361 0.3518
vn -0.2546 0.9612 0.1061
vn -0.7288 0.6762 0.1081
vn -0.9110 -0.3823 0.1546
vn -0.8224 -0.5688 -0.0138
vn -0.5920 -0.7902 -0.1586
vn -0.6424 -0.6663 -0.3786
vn -0.1273 0.8867 0.4444
vn -0.1463 0.9570 -0.2506
vn 0.2430 0.9674 -0.0711
vn -0.2944 0.9278 -0.2291
vn -0.4744 0.7940 -0.3802
vn -0.6248 -0.5574 -0.5467
vn -0.5831 -0.6093 -0.5373
vn -0.6524 -0.7022 -0.2850
vn -0.7641 -0.6130 0.2010
vn 0.3703 0.9272 0.0561
vn -0.2766 0.9403 -0.1985
vn -0.1333 0.9620 0.2382
vn -0.2282 0.9655 -0.1258
vn -0.4039 0.5251 -0.7490
vn -0.4278 -0.3617 -0.8283
vn -0.3907 -0.6943 -0.6044
vn -0.4364 -0.5111 -0.7405
vn -0.3895 -0.8833 -0.2611
vn 0.1734 0.9813 0.0836
vn 0.1476 0.9872 0.0598
vn 0.0232 0.9962 0.0834
vn 0.1264 0.9729 -0.1935
vn 0.2105 0.4755 -0.8542
vn 0.2715 -0.4191 -0.8664
vn 0.3198 -0.6659 -0.6740
vn 0.5114 -0.5750 -0.6386
vn 0.7988 -0.5318 -0.2813
vn 0.1571 0.9847 0.0755
vn 0.0931 0.9924 0.0804
vn -0.1182 0.9727 0.1998
vn 0.1670 0.9537 -0.2502
vn 0.6320 0.4472 -0.6329
vn 0.6154 -0.4688 -0.6336
vn 0.4759 -0.6069 -0.6366
vn 0.3664 -0.7131 -0.5977
vn 0.2253 -0.6461 -0.7292
vn 0.3467 0.8385 0.4204
vn -0.0576 0.9661 0.2516
vn -0.0202 0.9795 0.2002
vn 0.1764 0.9769 0.1202
vn 0.9818 0.1112 -0.1539
vn 0.9734 -0.0674 -0.2189
vn 0.6906 -0.6911 -0.2130
vn 0.7226 -0.5993 -0.3444
vn 0.3696 -0.7238 -0.5826
vn 0.3795 0.8571 -0.3483
vn -0.1362 0.9059 -0.4010
vn 0.1721 0.9605 -0.2187
vn 0.1674 0.9814 -0.0941
vn 0.9363 0.3310 0.1175
vn 0.9004 -0.3544 0.2523
vn 0.7899 -0.5463 0.2786
vn 0.8625 -0.5028 -0.0562
vn 0.4198 -0.8864 -0.1950
vn 0.2707 0.9477 -0.1691
vn -0.0641 0.9934 -0.0947
vn -0.0786 0.9942 -0.0732
vn 0.1753 0.9783 0.1102
vn 0.5445 0.4118 0.7307
vn 0.5543 -0.5355 0.6372
vn 0.5369 -0.5144 0.6687
vn 0.2460 -0.5187 0.8188
vn -0.0580 -0.8690 0.4914
vn 0.3722 0.9043 -0.2090
vn 0.0507 0.9546 0.2935
vn -0.1157 0.9389 -0.3242
vn 0.0052 0.9810 0.1938
vn 0.0863 0.2085 0.9742
vn 0.1113 -0.2239 0.9682
vn 0.1425 -0.6775 0.7215
vn 0.0527 -0.6063 0.7935
vn -0.1968 -0.8213 0.5355
vn -0.3913 0.8590 -0.3302
vn -0.0296 0.9852 0.1688
vn 0.1375 0.9857 -0.0974
vn -0.1007 0.9889 0.1088
vn -0.4497 0.1589 0.8789
vn -0.4774 -0.2002 0.8556
vn -0.3451 -0.5974 0.7239
vn -0.2710 -0.7360 0.6203
vn -0.4614 -0.7609 0.4563
vn 0.1142 0.7843 0.6098
vn -0.3908 -0.8211 0.4160
vn -0.5721 0.1806 -0.8001
vn 0.8590 -0.3157 -0.4031
vn 0.1081 -0.9860 0.1266
vn -0.7030 -0.7049 -0.0946
vn -0.2542 -0.0790 -0.9639
vn 0.5659 -0.3634 -0.7401
vn 0.2564 -0.1142 0.9598
vn -0.6770 0.2096 0.7055
vn -0.1596 0.9446 -0.2869
vn 0.7874 0.6158 -0.0286
vn 0.1303 0.9894 -0.0637
vn -0.0732 0.8477 0.5254
vn -0.1625 0.9737 0.1597
vn -0.6644 0.7408 -0.0990
vn 0.9943 0.0918 0.0550
vn 0.5265 -0.8493 0.0386
vn 0.9142 -0.2066 0.3486
vn 0.8153 -0.1345 0.5632
vn -0.4217 -0.4509 0.7867
vn -0.4823 -0.8663 0.1300
vn -0.6581 -0.7007 0.2756
vn -0.7394 -0.6464 0.1881
vn -0.3296 -0.3332 -0.8834
vn -0.1359 -0.7019 -0.6992
vn -0.2186 -0.3539 -0.9094
vn 0.2483 0.0932 -0.9642
usemtl ground
s 1
f 11/1/1 2/2/1 1/3/1
f 11/1/2 12/4/2 3/5/2 2/2/2
f 12/4/3 13/6/3 4/7/3 3/5/3
f 13/6/4 14/8/4 5/9/4 4/7/4
f 14/8/5 15/10/5 6/11/5 5/9/5
f 15/10/6 16/12/6 7/13/6 6/11/6
f 16/12/7 17/14/7 8/15/7 7/13/7
f 17/14/8 18/16/8 9/17/8 8/15/8
f 18/16/9 19/18/9 10/19/9 9/17/9
f 20/20/10 11/1/10 1/21/10
f 20/20/11 21/22/11 12/4/11 11/1/11
f 21/22/12 22/23/12 13/6/12 12/4/12
f 22/23/13 23/24/13 14/8/13 13/6/13
f 23/24/14 24/25/14 15/10/14 14/8/14
f 24/25/15 25/26/15 16/12/15 15/10/15
f 25/26/16 26/27/16 17/14/16 16/12/16
f 26/27/17 27/28/17 18/16/17 17/14/17
f 27/28/18 28/29/18 19/18/18 18/16/18
f 29/30/19 20/20/19 1/31/19
f 29/30/20 30/32/20 21/22/20 20/20/20
f 30/32/21 31/33/21 22/23/21 21/22/21
f 31/33/22 32/34/22 23/24/22 22/23/22
f 32/34/23 33/35/23 24/25/23 23/24/23
f 33/35/24 34/36/24 25/26/24 24/25/24
f 34/36/25 35/37/25 26/27/25 25/26/25
f 35/37/26 36/38/26 27/28/26 26/27/26
f 36/38/27 37/39/27 28/29/27 27/28/27
f 38/40/28 29/30/28 1/41/28
f 38/40/29 39/42/29 30/32/29 29/30/29
f 39/42/30 40/43/30 31/33/30 30/32/30
f 40/43/31 41/44/31 32/34/31 31/33/31
f 41/44/32 42/45/32 33/35/32 32/34/32
f 42/45/33 43/46/33 34/36/33 33/35/33
f 43/46/34 44/47/34 35/37/34 34/36/34
f 44/47/35 45/48/35 36/38/35 35/37/35
f 45/48/36 46/49/36 37/39/36 36/38/36
f 47/50/37 38/40/37 1/51/37
f 47/50/38 48/52/38 39/42/38 38/40/38
f 48/52/39 49/53/39 40/43/39 39/42/39
f 49/53/40 50/54/40 41/44/40 40/43/40
f 50/54/41 51/55/41 42/45/41 41/44/41
f 51/55/42 52/56/42 43/46/42 42/45/42
f 52/56/43 53/57/43 44/47/43 43/46/43
f 53/57/44 54/58/44 45/48/44 44/47/44
f 54/58/45 55/59/45 46/49/45 45/48/45
f 56/60/46 47/50/46 1/61/46
f 56/60/47 57/62/47 48/52/47 47/50/47
f 57/62/48 58/63/48 49/53/48 48/52/48
f 58/63/49 59/64/49 50/54/49 49/53/49
f 59/64/50 60/65/50 51/55/50 50/54/50
f 60/65/51 61/66/51 52/56/51 51/55/51
f 61/66/52 62/67/52 53/57/52 52/56/52
f 62/67/53 63/68/53 54/58/53 53/57/53
f 63/68/54 64/69/54 55/59/54 54/58/54
f 65/70/55 56/60/55 1/71/55
f 65/70/56 66/72/56 57/62/56 56/60/56
f 66/72/57 67/73/57 58/63/57 57/62/57
f 67/73/58 68/74/58 59/64/58 58/63/58
f 68/74/59 69/75/59 60/65/59 59/64/59
f 69/75/60 70/76/60 61/66/60 60/65/60
f 70/76/61 71/77/61 62/67/61 61/66/61
f 71/77/62 72/78/62 63/68/62 62/67/62
f 72/78/63 73/79/63 64/69/63 63/68/63
f 74/80/64 65/70/64 1/81/64
f 74/80/65 75/82/65 66/72/65 65/70/65
f 75/82/66 76/83/66 67/73/66 66/72/66
f 76/83/67 77/84/67 68/74/67 67/73/67
f 77/84/68 78/85/68 69/75/68 68/74/68
f 78/85/69 79/86/69 70/76/69 69/75/69
f 79/86/70 80/87/70 71/77/70 70/76/70
f 80/87/71 81/88/71 72/78/71 71/77/71
f 81/88/72 82/89/72 73/79/72 72/78/72
f 83/90/73 74/80/73 1/91/73
f 83/90/74 84/92/74 75/82/74 74/80/74
f 84/92/75 85/93/75 76/83/75 75/82/75
f 85/93/76 86/94/76 77/84/76 76/83/76
f 86/94/77 87/95/77 78/85/77 77/84/77
f 87/95/78 88/96/78 79/86/78 78/85/78
f 88/96/79 89/97/79 80/87/79 79/86/79
f 89/97/80 90/98/80 81/88/80 80/87/80
f 90/98/81 91/99/81 82/89/81 81/88/81
f 92/100/82 83/90/82 1/101/82
f 92/100/83 93/102/83 84/92/83 83/90/83
f 93/102/84 94/103/84 85/93/84 84/92/84
f 94/103/85 95/104/85 86/94/85 85/93/85
f 95/104/86 96/105/86 87/95/86 86/94/86
f 96/105/87 97/106/87 88/96/87 87/95/87
f 97/106/88 98/107/88 89/97/88 88/96/88
f 98/107/89 99/108/89 90/98/89 89/97/89
f 99/108/90 100/109/90 91/99/90 90/98/90
f 2/110/91 92/100/91 1/111/91
f 2/110/92 3/112/92 93/102/92 92/100/92
f 3/112/93 4/113/93 94/103/93 93/102/93
f 4/113/94 5/114/94 95/104/94 94/103/94
f 5/114/95 6/115/95 96/105/95 95/104/95
f 6/115/96 7/116/96 97/106/96 96/105/96
f 7/116/97 8/117/97 98/107/97 97/106/97
f 8/117/98 9/118/98 99/108/98 98/107/98
f 9/118/99 10/119/99 100/109/99 99/108/99
f 103/120/100 102/121/100 101/122/100
f 102/123/101 104/124/101 101/122/101
f 103/120/102 104/124/102 102/125/102
f 101/126/103 104/124/103 103/127/103
f 105/128/104 106/129/104 109/130/104
f 106/131/105 107/132/105 109/130/105
f 107/133/106 108/134/106 109/130/106
f 108/135/107 105/136/107 109/130/107
f 106/137/108 105/138/108 110/139/108
f 107/140/109 106/141/109 110/139/109
f 108/142/110 107/143/110 110/139/110
f 105/144/111 108/145/111 110/139/111
f 117/146/112 115/147/112 111/148/112
f 116/149/113 112/150/113 115/147/113
f 115/147/114 117/146/114 116/149/114
f 113/151/115 116/149/115 117/146/115
f 115/152/116 118/153/116 111/148/116
f 119/154/117 114/155/117 118/153/117
f 118/153/118 115/152/118 119/154/118
f 112/156/119 119/154/119 115/152/119
f 116/157/120 119/158/120 112/159/120
f 120/160/121 114/155/121 119/158/121
f 119/158/122 116/157/122 120/160/122
f 113/151/123 120/160/123 116/157/123
f 117/146/124 120/161/124 113/162/124
f 118/163/125 114/155/125 120/161/125
f 120/161/126 117/146/126 118/163/126
f 111/164/127 118/163/127 117/146/127
