# Blender v2.79 (sub 0) OBJ File: 'Low-Poly_Models.blend'
# www.blender.org
mtllib Rock.mtl
o Icosphere
v 0.340627 0.256706 -0.658297
v 0.164976 0.349767 -0.482514
v 0.384828 0.463869 -0.853106
v 0.300120 0.583230 -0.711821
v 0.182821 0.288583 -0.549518
v 0.199193 0.262756 -0.714921
v 0.476906 0.344642 -0.693223
v 0.295425 0.346065 -0.454059
v 0.446217 0.356463 -0.533905
v 0.068432 0.349767 -0.615395
v 0.166535 0.351110 -0.841364
v 0.082431 0.345615 -0.749641
v 0.429279 0.356591 -0.829714
v 0.322807 0.350832 -0.875817
v 0.382120 0.473552 -0.512524
v 0.161423 0.505759 -0.517512
v 0.091840 0.475858 -0.717588
v 0.457333 0.475121 -0.742329
v 0.333894 0.565675 -0.585974
v 0.182783 0.589197 -0.596964
v 0.191294 0.519221 -0.794311
vn 0.5646 -0.8080 0.1687
vn -0.0997 -0.9846 0.1439
vn 0.0277 0.7717 -0.6354
vn 0.5616 0.8267 -0.0354
vn 0.4699 0.7928 -0.3881
vn -0.2788 0.9013 -0.3316
vn -0.5649 0.7697 -0.2973
vn -0.8646 0.4444 0.2343
vn 0.1461 0.9844 0.0981
vn 0.0530 0.6815 0.7299
vn 0.0771 0.6459 0.7595
vn 0.7597 0.5992 0.2527
vn 0.9445 0.0182 -0.3280
vn 0.8071 0.2145 -0.5501
vn -0.1989 0.2968 -0.9340
vn -0.2054 0.2917 -0.9342
vn -0.6607 0.2910 -0.6920
vn -0.9895 0.0976 -0.1062
vn -0.8925 0.3722 0.2548
vn -0.2027 0.2100 0.9565
vn 0.0370 0.3957 0.9176
vn 0.8618 0.4197 0.2849
vn 0.3987 -0.0346 -0.9164
vn -0.7264 0.2133 -0.6533
vn -0.8039 0.1127 0.5840
vn -0.6074 -0.6605 0.4413
vn 0.4611 0.0912 0.8827
vn 0.9631 0.2085 0.1701
vn 0.2223 -0.8880 -0.4025
vn 0.1224 -0.9072 -0.4026
vn -0.1221 -0.8281 -0.5471
vn -0.4288 -0.7888 -0.4404
vn -0.5716 -0.8198 -0.0342
vn -0.5071 -0.8578 0.0838
vn 0.4816 -0.8424 -0.2418
vn -0.1613 -0.7498 0.6417
vn 0.1060 -0.9022 0.4182
vn 0.2900 -0.8516 0.4368
usemtl Material.004
s off
f 9//1 1//1 7//1
f 1//2 5//2 6//2
f 3//3 21//3 4//3
f 19//4 18//4 4//4
f 18//5 3//5 4//5
f 21//6 20//6 4//6
f 21//7 17//7 20//7
f 17//8 16//8 20//8
f 20//9 19//9 4//9
f 20//10 16//10 19//10
f 16//11 15//11 19//11
f 15//12 18//12 19//12
f 7//13 13//13 18//13
f 13//14 3//14 18//14
f 14//15 21//15 3//15
f 14//16 11//16 21//16
f 11//17 17//17 21//17
f 12//18 10//18 17//18
f 10//19 16//19 17//19
f 2//20 8//20 16//20
f 8//21 15//21 16//21
f 9//22 18//22 15//22
f 13//23 14//23 3//23
f 11//24 12//24 17//24
f 10//25 2//25 16//25
f 10//26 5//26 2//26
f 8//27 9//27 15//27
f 9//28 7//28 18//28
f 1//29 14//29 13//29
f 1//30 6//30 14//30
f 6//31 11//31 14//31
f 6//32 12//32 11//32
f 6//33 10//33 12//33
f 6//34 5//34 10//34
f 7//35 1//35 13//35
f 5//36 8//36 2//36
f 5//37 1//37 8//37
f 1//38 9//38 8//38
o Sphere
v -0.187126 0.696395 -0.393825
v 0.051266 0.450223 -0.586550
v -0.040867 0.618838 -0.473728
v 0.186652 0.448657 -0.488419
v 0.028989 0.335377 -0.597130
v -0.040782 0.253393 -0.563977
v -0.076356 0.156772 -0.383619
v 0.235412 0.491770 -0.356014
v 0.179184 0.318862 -0.484556
v 0.135741 0.217679 -0.403572
v 0.063990 0.169272 -0.289147
v 0.267417 0.337955 -0.346623
v 0.195714 0.542812 -0.255077
v 0.285257 0.406344 -0.263824
v 0.236087 0.269406 -0.188184
v 0.238069 0.343373 -0.080512
v 0.147693 0.555261 -0.125553
v 0.229615 0.459946 -0.076093
v 0.064278 0.229919 -0.012388
v 0.104433 0.381445 0.068933
v 0.103105 0.310755 0.044319
v 0.005584 0.563885 0.029015
v -0.068223 0.618249 -0.019464
v -0.085380 0.495216 0.107765
v -0.187691 0.583729 0.041908
v -0.216704 0.333050 0.148187
v -0.203685 0.261416 0.108015
v -0.027151 0.160455 -0.125465
v -0.097355 0.688860 -0.343847
v -0.127167 0.650571 -0.162067
v -0.245752 0.498850 0.103719
v -0.332228 0.226124 0.086640
v -0.421332 0.283564 0.081572
v -0.104050 0.146227 -0.204607
v -0.396233 0.513435 0.001016
v -0.459231 0.425550 0.030063
v -0.405061 0.216992 -0.002221
v -0.266041 0.180126 -0.090223
v -0.513425 0.315354 -0.051938
v -0.408127 0.604118 -0.273192
v -0.525205 0.457034 -0.310211
v -0.503530 0.259780 -0.167811
v -0.529372 0.411608 -0.384847
v -0.481862 0.514926 -0.417743
v -0.384040 0.217053 -0.377525
v -0.234236 0.685639 -0.276802
v -0.300071 0.661829 -0.414274
v -0.459170 0.424804 -0.494750
v -0.456224 0.342701 -0.474691
v -0.297357 0.596910 -0.518706
v -0.205973 0.331192 -0.606124
v -0.248838 0.230703 -0.516430
v -0.255922 0.160885 -0.344758
v -0.126775 0.570926 -0.565185
v -0.204623 0.448290 -0.619083
vn 0.1162 0.3369 -0.9344
vn 0.1253 0.0669 -0.9899
vn 0.3573 0.6464 -0.6742
vn 0.4493 0.6533 -0.6094
vn 0.4882 0.8391 -0.2400
vn 0.9069 0.1650 -0.3877
vn 0.8447 -0.0644 -0.5314
vn 0.7027 -0.6931 -0.1609
vn 0.8544 0.5140 0.0761
vn 0.8201 0.5664 0.0814
vn 0.9488 -0.3115 0.0528
vn 0.9616 0.0596 0.2680
vn 0.4127 -0.8925 0.1817
vn 0.6053 -0.6612 0.4431
vn 0.2889 0.9261 0.2425
vn 0.7488 0.0292 0.6622
vn 0.6893 -0.2497 0.6800
vn 0.3166 0.9449 0.0833
vn 0.4100 0.8505 0.3295
vn 0.4079 0.4005 0.8205
vn 0.2315 0.0547 0.9713
vn 0.1203 0.7467 0.6542
vn -0.0193 -0.9229 0.3845
vn -0.0069 0.5918 0.8061
vn -0.1356 0.9527 0.2720
vn 0.2018 -0.9268 0.3166
vn 0.0842 0.9722 0.2186
vn -0.3446 0.1864 0.9201
vn -0.0102 -0.4905 0.8714
vn -0.3476 0.9166 0.1972
vn -0.1580 -0.9851 0.0682
vn -0.8247 -0.0151 0.5653
vn -0.6518 -0.7040 0.2820
vn -0.3993 0.8652 0.3034
vn -0.3792 -0.9252 -0.0136
vn -0.9987 0.0088 0.0504
vn -0.8134 -0.5176 -0.2653
vn -0.8225 -0.1627 -0.5449
vn -0.8336 0.2223 -0.5058
vn -0.5564 0.6991 -0.4491
vn -0.4819 -0.6923 -0.5371
vn -0.0368 -0.9972 -0.0644
vn -0.4411 0.2968 -0.8470
vn -0.0417 0.7991 -0.5998
vn -0.1615 0.4812 -0.8616
vn -0.1030 -0.9199 -0.3784
vn 0.0400 -0.1104 -0.9931
vn 0.0422 -0.4052 -0.9133
vn -0.0123 -0.8804 -0.4741
vn 0.2755 0.8911 -0.3606
vn 0.2119 -0.8782 -0.4287
vn 0.2467 -0.9383 -0.2423
vn 0.5909 -0.0497 -0.8052
vn 0.4216 -0.6528 -0.6294
vn 0.1306 -0.9914 -0.0107
vn 0.5222 0.7354 -0.4318
vn 0.7087 -0.6006 -0.3702
vn 0.4893 0.8405 -0.2326
vn 0.9243 0.1715 -0.3408
vn 0.2613 -0.3821 0.8864
vn 0.5184 -0.8544 -0.0363
vn 0.4274 0.9012 0.0718
vn 0.9539 -0.2553 0.1578
vn 0.6935 0.6948 0.1903
vn 0.4159 -0.8854 0.2076
vn 0.6032 -0.6315 0.4872
vn 0.5420 0.7040 0.4590
vn 0.5417 0.4490 0.7106
vn -0.7785 0.5893 0.2158
vn 0.2536 -0.6342 0.7304
vn 0.1026 -0.8824 0.4591
vn 0.1180 0.6769 0.7265
vn -0.0186 0.2560 0.9665
vn -0.3569 0.6970 0.6219
vn -0.0476 -0.9740 0.2213
vn -0.2347 -0.2819 0.9303
vn -0.4347 0.5479 0.7148
vn -0.3853 0.2221 0.8957
vn -0.1823 0.8798 0.4390
vn -0.4945 -0.7248 0.4798
vn -0.1279 -0.9705 0.2045
vn -0.9301 0.3024 0.2083
vn -0.7620 -0.5709 0.3056
vn -0.3761 0.9264 0.0197
vn -0.2171 -0.9740 0.0650
vn -0.9853 -0.1708 -0.0022
vn -0.3933 -0.9187 -0.0369
vn -0.7844 0.6200 0.0176
vn -0.9147 0.3659 -0.1717
vn -0.7213 -0.6326 -0.2821
vn -0.4440 -0.1500 -0.8834
vn -0.6187 0.7694 -0.1591
vn -0.5738 0.4437 -0.6884
vn 0.0266 0.9944 0.1021
vn -0.2918 -0.8818 -0.3706
vn -0.4212 -0.4973 -0.7585
vn -0.1611 0.8363 -0.5241
vn -0.1051 -0.6369 -0.7638
vn 0.1325 0.8214 -0.5548
usemtl Material.001
s off
f 76//39 75//39 23//39
f 76//40 23//40 26//40
f 75//41 24//41 23//41
f 23//42 24//42 25//42
f 24//43 50//43 29//43
f 25//44 29//44 33//44
f 25//45 33//45 30//45
f 33//46 36//46 31//46
f 34//47 39//47 29//47
f 29//48 39//48 35//48
f 35//49 36//49 33//49
f 39//50 37//50 35//50
f 32//51 36//51 49//51
f 36//52 37//52 40//52
f 38//53 50//53 51//53
f 39//54 41//54 37//54
f 37//55 41//55 42//55
f 51//56 44//56 38//56
f 44//57 43//57 38//57
f 43//58 45//58 41//58
f 45//59 47//59 41//59
f 43//60 44//60 46//60
f 49//61 48//61 59//61
f 45//62 46//62 52//62
f 44//63 51//63 46//63
f 48//64 53//64 59//64
f 51//65 50//65 67//65
f 47//66 52//66 54//66
f 47//67 53//67 48//67
f 46//68 51//68 56//68
f 59//69 74//69 55//69
f 57//70 60//70 54//70
f 60//71 63//71 54//71
f 67//72 61//72 56//72
f 58//73 63//73 74//73
f 62//74 64//74 60//74
f 64//75 70//75 63//75
f 64//76 69//76 70//76
f 65//77 69//77 64//77
f 68//78 71//78 65//78
f 66//79 70//79 73//79
f 55//80 74//80 28//80
f 71//81 76//81 69//81
f 71//82 22//82 75//82
f 71//83 75//83 76//83
f 73//84 28//84 74//84
f 72//85 76//85 26//85
f 27//86 72//86 26//86
f 73//87 27//87 28//87
f 24//88 22//88 50//88
f 27//89 31//89 28//89
f 28//90 31//90 32//90
f 30//91 26//91 23//91 25//91
f 31//92 27//92 26//92 30//92
f 55//93 28//93 32//93 49//93
f 25//94 24//94 29//94
f 30//95 33//95 31//95
f 29//96 50//96 34//96
f 33//97 29//97 35//97
f 47//98 48//98 42//98 41//98
f 31//99 36//99 32//99
f 34//100 50//100 38//100
f 36//101 35//101 37//101
f 34//102 38//102 39//102
f 49//103 36//103 40//103
f 40//104 37//104 42//104
f 38//105 43//105 39//105
f 39//106 43//106 41//106
f 62//107 57//107 56//107 61//107
f 40//108 42//108 48//108
f 49//109 40//109 48//109
f 43//110 46//110 45//110
f 45//111 52//111 47//111
f 52//112 46//112 56//112
f 49//113 59//113 55//113
f 47//114 54//114 53//114
f 52//115 56//115 57//115
f 52//116 57//116 54//116
f 51//117 67//117 56//117
f 53//118 54//118 58//118
f 59//119 53//119 58//119
f 57//120 62//120 60//120
f 58//121 54//121 63//121
f 68//122 61//122 67//122 22//122
f 59//123 58//123 74//123
f 60//124 64//124 63//124
f 74//125 63//125 66//125
f 61//126 65//126 62//126
f 62//127 65//127 64//127
f 63//128 70//128 66//128
f 76//129 72//129 70//129 69//129
f 61//130 68//130 65//130
f 65//131 71//131 69//131
f 67//132 50//132 22//132
f 74//133 66//133 73//133
f 73//134 70//134 72//134
f 68//135 22//135 71//135
f 73//136 72//136 27//136
f 75//137 22//137 24//137
o Icosphere.001
v -0.659194 0.368517 0.314345
v -0.515078 0.462033 0.077547
v -0.570824 0.540583 0.170526
v -0.593518 0.312050 0.194175
v -0.573914 0.384506 0.340157
v -0.454321 0.382998 0.252505
v -0.723296 0.386943 0.233983
v -0.696365 0.384063 0.111748
v -0.510558 0.393255 0.064740
v -0.467363 0.469437 0.150449
v -0.527998 0.506376 0.281531
v -0.658008 0.536644 0.269128
v -0.688795 0.494502 0.140113
vn -0.1087 0.7263 -0.6788
vn 0.5706 0.8206 0.0327
vn 0.4699 0.7928 -0.3881
vn -0.3020 0.9251 -0.2301
vn 0.2017 0.9552 0.2165
vn 0.9350 -0.2026 -0.2911
vn 0.8190 0.1566 -0.5520
vn -0.3091 0.1544 -0.9384
vn -0.2490 0.2569 -0.9338
vn -0.9687 0.1220 -0.2163
vn -0.9205 0.3789 0.0959
vn -0.3229 0.2479 0.9134
vn 0.0138 0.4292 0.9031
vn 0.8535 0.4464 0.2690
vn -0.7492 0.1769 0.6382
vn 0.5847 0.1621 0.7949
vn -0.1057 -0.8105 -0.5762
vn -0.5192 -0.8495 -0.0944
vn -0.4553 -0.8754 0.1625
vn 0.5098 -0.8371 -0.1984
vn 0.0348 -0.8970 0.4406
vn 0.2796 -0.8744 0.3965
usemtl Material.003
s off
f 78//138 89//138 79//138
f 87//139 86//139 79//139
f 86//140 78//140 79//140
f 89//141 88//141 79//141
f 88//142 87//142 79//142
f 82//143 85//143 86//143
f 85//144 78//144 86//144
f 85//145 89//145 78//145
f 85//146 84//146 89//146
f 84//147 83//147 89//147
f 83//148 88//148 89//148
f 77//149 81//149 88//149
f 81//150 87//150 88//150
f 82//151 86//151 87//151
f 83//152 77//152 88//152
f 81//153 82//153 87//153
f 80//154 84//154 85//154
f 80//155 83//155 84//155
f 80//156 77//156 83//156
f 82//157 80//157 85//157
f 77//158 80//158 81//158
f 80//159 82//159 81//159
o Sphere.001
v -0.320297 0.468744 0.141477
v -0.240195 0.585223 0.012587
v -0.287324 0.364079 0.294944
v -0.428242 0.562795 0.168452
v -0.397415 0.432462 0.300924
v -0.336005 0.385524 0.471903
v -0.463126 0.546383 0.309090
v -0.438692 0.582817 0.433148
v -0.395120 0.724312 0.160122
v -0.427820 0.712674 0.287005
v -0.295561 0.520123 0.574632
v -0.357840 0.714476 0.428106
v -0.265806 0.846609 0.217748
v -0.147841 0.841789 0.251276
v -0.158742 0.736190 0.479227
v -0.184174 0.738622 -0.044486
v -0.111737 0.660749 0.556972
v -0.027408 0.770502 0.302272
v -0.056099 0.644281 0.559748
v -0.043337 0.712834 0.086144
v 0.025655 0.579113 0.450159
v 0.030023 0.567714 0.189185
v -0.003602 0.473421 0.236489
v -0.094814 0.638244 -0.002755
v -0.102458 0.375355 0.449373
v -0.164133 0.412822 0.184818
vn -0.0658 -0.7196 -0.6912
vn -0.1493 -0.8315 -0.5350
vn -0.5482 -0.4220 -0.7221
vn -0.6332 -0.0560 -0.7720
vn -0.8436 -0.4677 -0.2638
vn -0.8714 -0.3969 0.2882
vn -0.9557 0.1842 -0.2294
vn -0.9602 0.1749 -0.2178
vn -0.9670 0.2219 0.1253
vn -0.7340 -0.2587 0.6279
vn -0.7812 0.4944 0.3811
vn -0.4945 0.7387 -0.4581
vn -0.2106 0.8667 0.4522
vn -0.0091 0.1363 0.9906
vn 0.1350 0.9303 -0.3411
vn 0.4186 0.8163 0.3982
vn 0.5805 0.7440 -0.3308
vn 0.2643 -0.4048 0.8754
vn 0.8163 0.4775 0.3250
vn 0.4047 0.8757 -0.2635
vn 0.6131 -0.3881 0.6881
vn 0.9461 -0.3224 0.0299
vn 0.0491 -0.6153 0.7868
vn 0.4439 -0.6499 -0.6170
vn 0.0325 -0.3589 -0.9328
vn 0.1634 -0.6602 -0.7331
vn -0.0325 -0.9932 0.1114
vn -0.5288 -0.8476 -0.0428
vn -0.8488 -0.5016 0.1672
vn -0.6960 0.1061 -0.7101
vn -0.2588 0.6103 0.7487
vn -0.5638 0.3744 0.7362
vn -0.6593 0.7450 -0.1016
vn -0.5464 0.7959 0.2608
vn 0.9222 0.3513 -0.1617
vn -0.3105 0.5068 0.8042
vn -0.0812 0.9058 0.4158
vn 0.1940 0.7600 0.6202
vn 0.3083 0.8401 0.4462
vn 0.9628 0.2703 0.0043
vn -0.5790 -0.6885 -0.4367
vn 0.8372 -0.5270 0.1460
vn 0.8455 0.0500 -0.5316
vn 0.6180 -0.5174 -0.5920
vn 0.4057 -0.8871 -0.2202
vn 0.2136 -0.9591 -0.1856
vn 0.6745 0.3248 -0.6630
usemtl Material.002
s off
f 115//160 90//160 91//160
f 115//161 92//161 90//161
f 90//162 93//162 91//162
f 91//163 93//163 105//163
f 93//164 94//164 96//164
f 96//165 95//165 97//165
f 98//166 93//166 99//166
f 93//167 96//167 99//167
f 99//168 96//168 97//168
f 95//169 100//169 97//169
f 99//170 97//170 101//170
f 105//171 98//171 102//171
f 102//172 101//172 104//172
f 100//173 108//173 106//173
f 102//174 103//174 105//174
f 104//175 108//175 103//175
f 103//176 107//176 105//176
f 108//177 100//177 114//177
f 107//178 108//178 110//178
f 105//179 107//179 109//179
f 108//180 114//180 110//180
f 111//181 110//181 112//181
f 100//182 95//182 114//182
f 113//183 112//183 115//183
f 113//184 91//184 105//184
f 113//185 115//185 91//185
f 114//186 95//186 92//186
f 92//187 95//187 94//187
f 94//188 95//188 96//188
f 93//189 98//189 105//189
f 106//190 104//190 101//190
f 100//191 101//191 97//191
f 98//192 99//192 102//192
f 99//193 101//193 102//193
f 111//194 109//194 107//194
f 100//195 106//195 101//195
f 102//196 104//196 103//196
f 104//197 106//197 108//197
f 103//198 108//198 107//198
f 107//199 110//199 111//199
f 90//200 92//200 94//200 93//200
f 110//201 114//201 112//201
f 109//202 111//202 113//202
f 111//203 112//203 113//203
f 114//204 115//204 112//204
f 114//205 92//205 115//205
f 113//206 105//206 109//206
