# Blender v2.79 (sub 0) OBJ File: ''
# www.blender.org
mtllib Rock3.mtl
o Sphere.001
v -0.164133 0.412822 0.184818
v -0.320297 0.468744 0.141477
v -0.240195 0.585223 0.012587
v -0.287324 0.364079 0.294944
v -0.428242 0.562795 0.168452
v -0.184174 0.738622 -0.044486
v -0.397415 0.432462 0.300924
v -0.463126 0.546383 0.309090
v -0.336005 0.385524 0.471903
v -0.438692 0.582817 0.433148
v -0.395120 0.724312 0.160122
v -0.427820 0.712674 0.287005
v -0.295561 0.520123 0.574632
v -0.357840 0.714476 0.428106
v -0.265806 0.846609 0.217748
v -0.158742 0.736190 0.479227
v -0.056099 0.644281 0.559748
v -0.111737 0.660749 0.556972
v -0.147841 0.841789 0.251276
v -0.027408 0.770502 0.302272
v -0.102458 0.375355 0.449373
v 0.025655 0.579113 0.450159
v -0.043337 0.712834 0.086144
v 0.030023 0.567714 0.189185
v -0.003602 0.473421 0.236489
v -0.094814 0.638244 -0.002755
vn -0.0658 -0.7196 -0.6912
vn -0.1493 -0.8315 -0.5350
vn -0.5482 -0.4220 -0.7221
vn -0.6332 -0.0560 -0.7720
vn -0.8436 -0.4677 -0.2638
vn -0.8714 -0.3969 0.2882
vn -0.9557 0.1842 -0.2294
vn -0.9602 0.1749 -0.2178
vn -0.9670 0.2219 0.1253
vn -0.7340 -0.2587 0.6279
vn -0.7812 0.4944 0.3811
vn -0.4945 0.7387 -0.4581
vn -0.2106 0.8667 0.4522
vn -0.0091 0.1363 0.9906
vn 0.1350 0.9303 -0.3411
vn 0.4186 0.8163 0.3982
vn 0.5805 0.7440 -0.3308
vn 0.2643 -0.4048 0.8754
vn 0.8163 0.4775 0.3250
vn 0.4047 0.8757 -0.2635
vn 0.6131 -0.3881 0.6881
vn 0.9461 -0.3224 0.0299
vn 0.0491 -0.6153 0.7868
vn 0.4439 -0.6499 -0.6170
vn 0.0325 -0.3589 -0.9328
vn 0.1634 -0.6602 -0.7331
vn -0.0325 -0.9932 0.1114
vn -0.5288 -0.8476 -0.0428
vn -0.8488 -0.5016 0.1672
vn -0.6960 0.1061 -0.7101
vn -0.2588 0.6103 0.7487
vn -0.5638 0.3744 0.7362
vn -0.6593 0.7450 -0.1016
vn -0.5464 0.7959 0.2608
vn 0.9222 0.3513 -0.1617
vn -0.3105 0.5068 0.8042
vn -0.0812 0.9058 0.4158
vn 0.1940 0.7601 0.6202
vn 0.3083 0.8401 0.4462
vn 0.9628 0.2703 0.0043
vn -0.5790 -0.6885 -0.4367
vn 0.8372 -0.5270 0.1460
vn 0.8455 0.0500 -0.5316
vn 0.6179 -0.5174 -0.5920
vn 0.4057 -0.8871 -0.2202
vn 0.2136 -0.9591 -0.1856
vn 0.6745 0.3248 -0.6630
usemtl Material.002
s 1
f 1//1 2//1 3//1
f 1//2 4//2 2//2
f 2//3 5//3 3//3
f 3//4 5//4 6//4
f 5//5 7//5 8//5
f 8//6 9//6 10//6
f 11//7 5//7 12//7
f 5//8 8//8 12//8
f 12//9 8//9 10//9
f 9//10 13//10 10//10
f 12//11 10//11 14//11
f 6//12 11//12 15//12
f 15//13 14//13 16//13
f 13//14 17//14 18//14
f 15//15 19//15 6//15
f 16//16 17//16 19//16
f 19//17 20//17 6//17
f 17//18 13//18 21//18
f 20//19 17//19 22//19
f 6//20 20//20 23//20
f 17//21 21//21 22//21
f 24//22 22//22 25//22
f 13//23 9//23 21//23
f 26//24 25//24 1//24
f 26//25 3//25 6//25
f 26//26 1//26 3//26
f 21//27 9//27 4//27
f 4//28 9//28 7//28
f 7//29 9//29 8//29
f 5//30 11//30 6//30
f 18//31 16//31 14//31
f 13//32 14//32 10//32
f 11//33 12//33 15//33
f 12//34 14//34 15//34
f 24//35 23//35 20//35
f 13//36 18//36 14//36
f 15//37 16//37 19//37
f 16//38 18//38 17//38
f 19//39 17//39 20//39
f 20//40 22//40 24//40
f 2//41 4//41 7//41 5//41
f 22//42 21//42 25//42
f 23//43 24//43 26//43
f 24//44 25//44 26//44
f 21//45 1//45 25//45
f 21//46 4//46 1//46
f 26//47 6//47 23//47
