# Blender v2.79 (sub 0) OBJ File: ''
# www.blender.org
mtllib Rock4.mtl
o Icosphere.001
v -0.515078 0.462033 0.077547
v -0.688795 0.494502 0.140113
v -0.570824 0.540583 0.170526
v -0.527998 0.506376 0.281531
v -0.467363 0.469437 0.150449
v -0.658008 0.536644 0.269128
v -0.454321 0.382998 0.252505
v -0.510558 0.393255 0.064740
v -0.696365 0.384063 0.111748
v -0.723296 0.386943 0.233983
v -0.659194 0.368517 0.314345
v -0.573914 0.384506 0.340157
v -0.593518 0.312050 0.194175
vn -0.1087 0.7263 -0.6787
vn 0.5706 0.8206 0.0327
vn 0.4699 0.7928 -0.3881
vn -0.3020 0.9251 -0.2301
vn 0.2017 0.9552 0.2165
vn 0.9350 -0.2026 -0.2911
vn 0.8190 0.1566 -0.5520
vn -0.3091 0.1544 -0.9384
vn -0.2490 0.2569 -0.9338
vn -0.9687 0.1220 -0.2163
vn -0.9204 0.3789 0.0959
vn -0.3229 0.2479 0.9134
vn 0.0138 0.4292 0.9031
vn 0.8535 0.4464 0.2690
vn -0.7492 0.1769 0.6382
vn 0.5847 0.1621 0.7949
vn -0.1057 -0.8105 -0.5762
vn -0.5192 -0.8495 -0.0944
vn -0.4553 -0.8754 0.1625
vn 0.5098 -0.8371 -0.1984
vn 0.0348 -0.8970 0.4406
vn 0.2796 -0.8744 0.3965
usemtl Material.003
s 1
f 1//1 2//1 3//1
f 4//2 5//2 3//2
f 5//3 1//3 3//3
f 2//4 6//4 3//4
f 6//5 4//5 3//5
f 7//6 8//6 5//6
f 8//7 1//7 5//7
f 8//8 2//8 1//8
f 8//9 9//9 2//9
f 9//10 10//10 2//10
f 10//11 6//11 2//11
f 11//12 12//12 6//12
f 12//13 4//13 6//13
f 7//14 5//14 4//14
f 10//15 11//15 6//15
f 12//16 7//16 4//16
f 13//17 9//17 8//17
f 13//18 10//18 9//18
f 13//19 11//19 10//19
f 7//20 13//20 8//20
f 11//21 13//21 12//21
f 13//22 7//22 12//22
