# Blender v2.79 (sub 0) OBJ File: 'SpaceShip.blend'
# www.blender.org
mtllib SpaceShipReactor.mtl
o Cube
v -0.731913 0.481197 0.859975
v -0.685311 0.596384 0.833394
v -0.774513 0.375900 0.884273
v -0.763472 0.334693 0.895704
v -0.774513 0.375900 0.884273
v -0.731913 0.481197 0.859975
v -0.145858 0.544348 0.884273
v -0.169328 0.631941 0.859975
v -0.145858 0.544348 0.884273
v -0.169328 0.631941 0.859975
v 0.393257 0.782685 0.859975
v -0.169328 0.631941 0.859975
v -0.195003 0.727761 0.833394
v 0.295305 0.859139 0.833394
v 0.482798 0.712796 0.884273
v 0.493840 0.671588 0.895704
v -0.134816 0.503140 0.895704
v -0.145858 0.544348 0.884273
v 0.482798 0.712796 0.884273
v -0.145858 0.544348 0.884273
v -0.169328 0.631941 0.859975
v 0.393257 0.782685 0.859975
v -0.270527 1.009621 1.859291
v -0.270527 1.009621 1.859291
v -0.296202 1.105441 1.832710
v -0.296202 1.105441 1.832710
v -0.247057 0.922028 1.883589
v -0.236015 0.880821 1.895020
v -0.236015 0.880821 1.895020
v -0.247057 0.922028 1.883589
v -0.247057 0.922028 1.883589
v -0.247057 0.922028 1.883589
v -0.270527 1.009621 1.859291
v -0.270527 1.009621 1.859291
vn -0.8594 -0.0907 0.5032
vn -0.9167 0.1807 0.3564
vn 0.2410 -0.8995 0.3644
vn -0.2410 0.8995 -0.3644
vn -0.9355 0.1707 0.3094
vn 0.0000 0.0000 1.0000
vn 0.7896 0.3512 0.5032
vn 0.7035 0.6148 0.3564
vn -0.9659 -0.2588 0.0000
vn 0.7248 0.6156 0.3094
usemtl Base
s off
f 3//1 4//1 28//1 27//1
f 6//2 5//2 31//2 34//2
f 4//3 17//3 29//3 28//3
f 13//4 2//4 26//4 25//4
f 2//5 1//5 23//5 26//5
f 21//4 6//4 34//4 33//4
f 8//6 7//6 9//6 10//6
f 15//7 27//7 28//7 16//7
f 22//8 34//8 31//8 19//8
f 12//9 24//9 25//9 13//9
f 16//3 28//3 29//3 17//3
f 13//4 25//4 26//4 14//4
f 20//9 32//9 33//9 21//9
f 17//9 29//9 30//9 18//9
f 14//10 26//10 23//10 11//10
f 21//4 33//4 34//4 22//4
