# Blender v2.79 (sub 0) OBJ File: 'Low-Poly_Models.blend'
# www.blender.org
mtllib TreeShadow.mtl
o Cylinder.012
v 0.006704 0.000000 0.183079
v -0.004579 -0.000000 0.214102
v -0.004722 -0.000000 0.214102
v 0.003970 0.000000 0.183079
v -0.005082 -0.000000 0.214102
v -0.002699 0.000000 0.180497
v -0.005491 -0.000000 0.214102
v -0.010824 -0.000000 0.183079
v -0.005758 -0.000000 0.214102
v -0.015962 -0.000000 0.183079
v -0.005758 -0.000000 0.214102
v -0.015709 -0.000000 0.180497
v -0.005491 -0.000000 0.214102
v -0.010824 -0.000000 0.183079
v -0.005082 -0.000000 0.214102
v -0.002952 0.000000 0.183079
v -0.004722 -0.000000 0.214102
v 0.004223 0.000000 0.180497
v 0.034659 0.000000 0.049480
v 0.025117 0.000000 0.049480
v 0.000957 0.000000 0.041565
v -0.026516 -0.000000 0.041565
v -0.044449 -0.000000 0.049480
v -0.044196 -0.000000 0.046897
v -0.026516 -0.000000 0.041565
v 0.000957 0.000000 0.041565
v 0.025370 0.000000 0.038982
v 0.002471 0.000000 0.039471
v 0.000184 0.000000 0.064001
v 0.021551 0.000000 0.061419
v 0.031074 0.000000 0.036889
v 0.029637 0.000000 0.064001
v 0.042017 0.000000 0.039471
v -0.029768 -0.000000 0.039471
v -0.023825 -0.000000 0.064001
v -0.050558 -0.000000 0.036889
v -0.039244 -0.000000 0.061419
v -0.050810 -0.000000 0.039471
v -0.039497 -0.000000 0.064001
v -0.029768 -0.000000 0.039471
v -0.023825 -0.000000 0.064001
v 0.002723 0.000000 0.036889
v 0.000184 0.000000 0.064001
v 0.030821 0.000000 0.039471
v 0.021298 0.000000 0.064001
v -0.001708 0.000000 0.151533
v -0.004065 -0.000000 0.185122
v 0.000555 0.000000 0.182540
v 0.010354 0.000000 0.148950
v 0.002027 0.000000 0.185122
v 0.014765 0.000000 0.151533
v -0.015137 -0.000000 0.151533
v -0.009031 -0.000000 0.185122
v -0.023650 -0.000000 0.148950
v -0.012019 -0.000000 0.182540
v -0.023902 -0.000000 0.151533
v -0.012272 -0.000000 0.185122
v -0.015137 -0.000000 0.151533
v -0.009031 -0.000000 0.185122
v -0.001455 0.000000 0.148950
v -0.004065 -0.000000 0.185122
v 0.010101 0.000000 0.151533
v 0.000302 0.000000 0.185122
v 0.023713 0.000000 0.116860
v 0.009195 0.000000 0.153676
v 0.005753 0.000000 0.153676
v 0.016907 0.000000 0.116860
v -0.002962 0.000000 0.153676
v -0.000073 0.000000 0.114278
v -0.012872 -0.000000 0.153676
v -0.019922 -0.000000 0.116860
v -0.019340 -0.000000 0.153676
v -0.032713 -0.000000 0.116860
v -0.019088 -0.000000 0.151093
v -0.032460 -0.000000 0.114278
v -0.012872 -0.000000 0.153676
v -0.019922 -0.000000 0.116860
v -0.002962 0.000000 0.153676
v -0.000326 0.000000 0.116860
v 0.017160 0.000000 0.114278
v 0.006006 0.000000 0.151093
v 0.000655 0.000000 0.085708
v -0.001745 0.000000 0.118984
v 0.012020 0.000000 0.116401
v 0.022120 0.000000 0.083125
v 0.017103 0.000000 0.118984
v 0.030244 0.000000 0.085708
v -0.023467 -0.000000 0.085708
v -0.017109 -0.000000 0.118984
v -0.038958 -0.000000 0.083125
v -0.026886 -0.000000 0.116401
v -0.039211 -0.000000 0.085708
v -0.027138 -0.000000 0.118984
v -0.023467 -0.000000 0.085708
v -0.017109 -0.000000 0.118984
v 0.000907 0.000000 0.083125
v -0.001745 0.000000 0.118984
v 0.021867 0.000000 0.085708
v 0.011767 0.000000 0.118984
v 0.037012 0.000000 0.061572
v 0.024153 0.000000 0.088060
v 0.017128 0.000000 0.088060
v 0.027018 0.000000 0.061573
v -0.000660 0.000000 0.088060
v 0.001963 0.000000 0.058990
v -0.020887 -0.000000 0.088060
v -0.027067 -0.000000 0.061573
v -0.034089 -0.000000 0.088060
v -0.045851 -0.000000 0.061573
v -0.033836 -0.000000 0.085477
v -0.045598 -0.000000 0.058990
v -0.020887 -0.000000 0.088060
v -0.027067 -0.000000 0.061573
v -0.000660 0.000000 0.088060
v 0.001711 0.000000 0.061572
v 0.027270 0.000000 0.058990
v 0.017381 0.000000 0.085477
v 0.007130 0.000000 0.028887
v 0.011559 0.000000 0.053121
v 0.007849 0.000000 0.053121
v 0.004456 0.000000 0.028887
v -0.001545 0.000000 0.053121
v -0.002315 0.000000 0.028887
v -0.012229 -0.000000 0.053121
v -0.010014 -0.000000 0.028887
v -0.019202 -0.000000 0.053121
v -0.015040 -0.000000 0.028887
v -0.019202 -0.000000 0.053121
v -0.015040 -0.000000 0.028887
v -0.012229 -0.000000 0.053121
v -0.010014 -0.000000 0.028887
v -0.001545 0.000000 0.053121
v -0.002315 0.000000 0.028887
v 0.007849 0.000000 0.053121
v 0.004456 0.000000 0.028887
v 0.011559 0.000000 0.005182
v 0.007849 0.000000 0.005182
v -0.001545 0.000000 0.005182
v -0.012229 -0.000000 0.005182
v -0.019202 -0.000000 0.005182
v -0.019202 -0.000000 0.005182
v -0.012229 -0.000000 0.005182
v -0.001545 0.000000 0.005182
v 0.007849 0.000000 0.005182
vn 0.0000 -1.0000 -0.0000
vn -0.0000 1.0000 0.0000
vn -0.9701 0.0000 -0.2425
vn 0.0000 0.0000 1.0000
usemtl Bark
s 1
f 118//1 119//1 120//1 121//1
f 121//1 120//1 122//1 123//1
f 123//1 122//1 124//1 125//1
f 125//1 124//1 126//1 127//1
f 127//2 126//2 128//2 129//2
f 129//2 128//2 130//2 131//2
f 131//2 130//2 132//2 133//2
f 120//3 119//3 134//3 132//3 130//3 128//3 126//3 124//3 122//3
f 135//2 134//2 119//2 118//2
f 133//2 132//2 134//2 135//2
f 136//4 137//4 138//4 139//4 140//4 141//4 142//4 143//4 144//4
f 143//2 133//2 135//2 144//2
f 144//2 135//2 118//2 136//2
f 142//2 131//2 133//2 143//2
f 141//2 129//2 131//2 142//2
f 140//2 127//2 129//2 141//2
f 139//1 125//1 127//1 140//1
f 138//1 123//1 125//1 139//1
f 137//1 121//1 123//1 138//1
f 136//1 118//1 121//1 137//1
usemtl Leaves
f 1//1 2//1 3//1 4//1
f 4//1 3//1 5//1 6//1
f 6//1 5//1 7//1 8//1
f 8//1 7//1 9//1 10//1
f 10//2 9//2 11//2 12//2
f 12//2 11//2 13//2 14//2
f 14//2 13//2 15//2 16//2
f 3//4 2//4 17//4 15//4 13//4 11//4 9//4 7//4 5//4
f 18//2 17//2 2//2 1//2
f 16//2 15//2 17//2 18//2
f 19//1 20//1 21//1 22//1 23//1 24//1 25//1 26//1 27//1
f 28//2 29//2 30//2 31//2
f 31//2 30//2 32//2 33//2
f 34//2 35//2 29//2 28//2
f 36//2 37//2 35//2 34//2
f 38//2 39//2 37//2 36//2
f 40//1 41//1 39//1 38//1
f 42//1 43//1 41//1 40//1
f 44//1 45//1 43//1 42//1
f 33//1 32//1 45//1 44//1
f 46//2 47//2 48//2 49//2
f 49//2 48//2 50//2 51//2
f 52//2 53//2 47//2 46//2
f 54//2 55//2 53//2 52//2
f 56//2 57//2 55//2 54//2
f 58//1 59//1 57//1 56//1
f 60//1 61//1 59//1 58//1
f 62//1 63//1 61//1 60//1
f 51//1 50//1 63//1 62//1
f 64//1 65//1 66//1 67//1
f 67//1 66//1 68//1 69//1
f 69//1 68//1 70//1 71//1
f 71//1 70//1 72//1 73//1
f 73//2 72//2 74//2 75//2
f 75//2 74//2 76//2 77//2
f 77//2 76//2 78//2 79//2
f 80//2 81//2 65//2 64//2
f 79//2 78//2 81//2 80//2
f 82//2 83//2 84//2 85//2
f 85//2 84//2 86//2 87//2
f 88//2 89//2 83//2 82//2
f 90//2 91//2 89//2 88//2
f 92//2 93//2 91//2 90//2
f 94//1 95//1 93//1 92//1
f 96//1 97//1 95//1 94//1
f 98//1 99//1 97//1 96//1
f 87//1 86//1 99//1 98//1
f 100//1 101//1 102//1 103//1
f 103//1 102//1 104//1 105//1
f 105//1 104//1 106//1 107//1
f 107//1 106//1 108//1 109//1
f 109//2 108//2 110//2 111//2
f 111//2 110//2 112//2 113//2
f 113//2 112//2 114//2 115//2
f 116//2 117//2 101//2 100//2
f 115//2 114//2 117//2 116//2
f 47//1 16//1 18//1 48//1
f 48//1 18//1 1//1 50//1
f 53//1 14//1 16//1 47//1
f 55//1 12//1 14//1 53//1
f 57//1 10//1 12//1 55//1
f 59//2 8//2 10//2 57//2
f 61//2 6//2 8//2 59//2
f 63//2 4//2 6//2 61//2
f 50//2 1//2 4//2 63//2
f 65//2 51//2 62//2 66//2
f 66//2 62//2 60//2 68//2
f 68//2 60//2 58//2 70//2
f 70//2 58//2 56//2 72//2
f 72//1 56//1 54//1 74//1
f 74//1 54//1 52//1 76//1
f 76//1 52//1 46//1 78//1
f 81//1 49//1 51//1 65//1
f 78//1 46//1 49//1 81//1
f 83//1 79//1 80//1 84//1
f 84//1 80//1 64//1 86//1
f 89//1 77//1 79//1 83//1
f 91//1 75//1 77//1 89//1
f 93//1 73//1 75//1 91//1
f 95//2 71//2 73//2 93//2
f 97//2 69//2 71//2 95//2
f 99//2 67//2 69//2 97//2
f 86//2 64//2 67//2 99//2
f 101//2 87//2 98//2 102//2
f 102//2 98//2 96//2 104//2
f 104//2 96//2 94//2 106//2
f 106//2 94//2 92//2 108//2
f 108//1 92//1 90//1 110//1
f 110//1 90//1 88//1 112//1
f 112//1 88//1 82//1 114//1
f 117//1 85//1 87//1 101//1
f 114//1 82//1 85//1 117//1
f 29//1 115//1 116//1 30//1
f 30//1 116//1 100//1 32//1
f 35//1 113//1 115//1 29//1
f 37//1 111//1 113//1 35//1
f 39//1 109//1 111//1 37//1
f 41//2 107//2 109//2 39//2
f 43//2 105//2 107//2 41//2
f 45//2 103//2 105//2 43//2
f 32//2 100//2 103//2 45//2
f 19//2 33//2 44//2 20//2
f 20//2 44//2 42//2 21//2
f 21//2 42//2 40//2 22//2
f 22//2 40//2 38//2 23//2
f 23//1 38//1 36//1 24//1
f 24//1 36//1 34//1 25//1
f 25//1 34//1 28//1 26//1
f 27//1 31//1 33//1 19//1
f 26//1 28//1 31//1 27//1
