# Blender v2.79 (sub 0) OBJ File: ''
# www.blender.org
mtllib Trunk.mtl
o Cylinder
v -0.000533 0.016678 -0.007467
v -0.000533 0.033457 -0.010534
v 0.006525 0.033457 -0.007965
v 0.004553 0.016678 -0.005616
v 0.010280 0.033457 -0.001460
v 0.007260 0.016678 -0.000928
v 0.008976 0.033457 0.005937
v 0.006320 0.016678 0.004403
v 0.003222 0.033457 0.010765
v 0.002173 0.016678 0.007883
v -0.004289 0.033457 0.010765
v -0.003240 0.016678 0.007883
v -0.010042 0.033457 0.005937
v -0.007387 0.016678 0.004403
v -0.011347 0.033457 -0.001460
v -0.008327 0.016678 -0.000928
v -0.007591 0.033457 -0.007965
v -0.005620 0.016678 -0.005616
v -0.000533 0.000266 -0.010534
v 0.006525 0.000266 -0.007965
v 0.010280 0.000266 -0.001460
v 0.008976 0.000266 0.005937
v 0.003222 0.000266 0.010765
v -0.004289 0.000266 0.010765
v -0.010042 0.000266 0.005937
v -0.011347 0.000266 -0.001460
v -0.007591 0.000266 -0.007965
vn 0.3371 -0.1693 -0.9261
vn 0.8535 -0.1693 -0.4928
vn 0.9706 -0.1693 0.1711
vn 0.6335 -0.1693 0.7550
vn -0.0000 -0.1693 0.9856
vn -0.6335 -0.1693 0.7550
vn -0.9706 -0.1693 0.1711
vn 0.0000 1.0000 0.0000
vn -0.3371 -0.1693 -0.9261
vn -0.8535 -0.1693 -0.4928
vn 0.0000 -1.0000 -0.0000
vn -0.8530 0.1729 -0.4925
vn -0.3369 0.1729 -0.9255
vn -0.9700 0.1729 0.1710
vn -0.6331 0.1729 0.7545
vn -0.0000 0.1729 0.9849
vn 0.6331 0.1729 0.7545
vn 0.9700 0.1729 0.1710
vn 0.8530 0.1729 -0.4925
vn 0.3369 0.1729 -0.9255
usemtl Bark
s 1
f 1//1 2//1 3//1 4//1
f 4//2 3//2 5//2 6//2
f 6//3 5//3 7//3 8//3
f 8//4 7//4 9//4 10//4
f 10//5 9//5 11//5 12//5
f 12//6 11//6 13//6 14//6
f 14//7 13//7 15//7 16//7
f 3//8 2//8 17//8 15//8 13//8 11//8 9//8 7//8 5//8
f 18//9 17//9 2//9 1//9
f 16//10 15//10 17//10 18//10
f 19//11 20//11 21//11 22//11 23//11 24//11 25//11 26//11 27//11
f 26//12 16//12 18//12 27//12
f 27//13 18//13 1//13 19//13
f 25//14 14//14 16//14 26//14
f 24//15 12//15 14//15 25//15
f 23//16 10//16 12//16 24//16
f 22//17 8//17 10//17 23//17
f 21//18 6//18 8//18 22//18
f 20//19 4//19 6//19 21//19
f 19//20 1//20 4//20 20//20
